<svg id="my-svg" width="100%" xmlns="http://www.w3.org/2000/svg" xmlns:xlink="http://www.w3.org/1999/xlink" class="flowchart" style="max-width: 1192.32px; background-color: white;" viewBox="0 0 1192.3203125 2435.328125" role="graphics-document document" aria-roledescription="flowchart-v2"><style>#my-svg{font-family:"trebuchet ms",verdana,arial,sans-serif;font-size:16px;fill:#333;}@keyframes edge-animation-frame{from{stroke-dashoffset:0;}}@keyframes dash{to{stroke-dashoffset:0;}}#my-svg .edge-animation-slow{stroke-dasharray:9,5!important;stroke-dashoffset:900;animation:dash 50s linear infinite;stroke-linecap:round;}#my-svg .edge-animation-fast{stroke-dasharray:9,5!important;stroke-dashoffset:900;animation:dash 20s linear infinite;stroke-linecap:round;}#my-svg .error-icon{fill:#552222;}#my-svg .error-text{fill:#552222;stroke:#552222;}#my-svg .edge-thickness-normal{stroke-width:1px;}#my-svg .edge-thickness-thick{stroke-width:3.5px;}#my-svg .edge-pattern-solid{stroke-dasharray:0;}#my-svg .edge-thickness-invisible{stroke-width:0;fill:none;}#my-svg .edge-pattern-dashed{stroke-dasharray:3;}#my-svg .edge-pattern-dotted{stroke-dasharray:2;}#my-svg .marker{fill:#333333;stroke:#333333;}#my-svg .marker.cross{stroke:#333333;}#my-svg svg{font-family:"trebuchet ms",verdana,arial,sans-serif;font-size:16px;}#my-svg p{margin:0;}#my-svg .label{font-family:"trebuchet ms",verdana,arial,sans-serif;color:#333;}#my-svg .cluster-label text{fill:#333;}#my-svg .cluster-label span{color:#333;}#my-svg .cluster-label span p{background-color:transparent;}#my-svg .label text,#my-svg span{fill:#333;color:#333;}#my-svg .node rect,#my-svg .node circle,#my-svg .node ellipse,#my-svg .node polygon,#my-svg .node path{fill:#ECECFF;stroke:#9370DB;stroke-width:1px;}#my-svg .rough-node .label text,#my-svg .node .label text,#my-svg .image-shape .label,#my-svg .icon-shape .label{text-anchor:middle;}#my-svg .node .katex path{fill:#000;stroke:#000;stroke-width:1px;}#my-svg .rough-node .label,#my-svg .node .label,#my-svg .image-shape .label,#my-svg .icon-shape .label{text-align:center;}#my-svg .node.clickable{cursor:pointer;}#my-svg .root .anchor path{fill:#333333!important;stroke-width:0;stroke:#333333;}#my-svg .arrowheadPath{fill:#333333;}#my-svg .edgePath .path{stroke:#333333;stroke-width:1px;}#my-svg .flowchart-link{stroke:#333333;fill:none;}#my-svg .edgeLabel{background-color:rgba(232,232,232, 0.8);text-align:center;}#my-svg .edgeLabel p{background-color:rgba(232,232,232, 0.8);}#my-svg .edgeLabel rect{opacity:0.5;background-color:rgba(232,232,232, 0.8);fill:rgba(232,232,232, 0.8);}#my-svg .labelBkg{background-color:rgba(232, 232, 232, 0.5);}#my-svg .cluster rect{fill:#ffffde;stroke:#aaaa33;stroke-width:1px;}#my-svg .cluster text{fill:#333;}#my-svg .cluster span{color:#333;}#my-svg div.mermaidTooltip{position:absolute;text-align:center;max-width:200px;padding:2px;font-family:"trebuchet ms",verdana,arial,sans-serif;font-size:12px;background:hsl(80, 100%, 96.2745098039%);border:1px solid #aaaa33;border-radius:2px;pointer-events:none;z-index:100;}#my-svg .flowchartTitleText{text-anchor:middle;font-size:18px;fill:#333;}#my-svg rect.text{fill:none;stroke-width:0;}#my-svg .icon-shape,#my-svg .image-shape{background-color:rgba(232,232,232, 0.8);text-align:center;}#my-svg .icon-shape p,#my-svg .image-shape p{background-color:rgba(232,232,232, 0.8);padding:2px;}#my-svg .icon-shape .label rect,#my-svg .image-shape .label rect{opacity:0.5;background-color:rgba(232,232,232, 0.8);fill:rgba(232,232,232, 0.8);}#my-svg .label-icon{display:inline-block;height:1em;overflow:visible;vertical-align:-0.125em;}#my-svg .node .label-icon path{fill:currentColor;stroke:revert;stroke-width:revert;}#my-svg .node .neo-node{stroke:#9370DB;}#my-svg [data-look="neo"].node rect,#my-svg [data-look="neo"].cluster rect,#my-svg [data-look="neo"].node polygon{stroke:#9370DB;filter:drop-shadow(1px 2px 2px rgba(185, 185, 185, 1));}#my-svg [data-look="neo"].node path{stroke:#9370DB;stroke-width:1px;}#my-svg [data-look="neo"].node .outer-path{filter:drop-shadow(1px 2px 2px rgba(185, 185, 185, 1));}#my-svg [data-look="neo"].node .neo-line path{stroke:#9370DB;filter:none;}#my-svg [data-look="neo"].node circle{stroke:#9370DB;filter:drop-shadow(1px 2px 2px rgba(185, 185, 185, 1));}#my-svg [data-look="neo"].node circle .state-start{fill:#000000;}#my-svg [data-look="neo"].icon-shape .icon{fill:#9370DB;filter:drop-shadow(1px 2px 2px rgba(185, 185, 185, 1));}#my-svg [data-look="neo"].icon-shape .icon-neo path{stroke:#9370DB;filter:drop-shadow(1px 2px 2px rgba(185, 185, 185, 1));}#my-svg :root{--mermaid-font-family:"trebuchet ms",verdana,arial,sans-serif;}</style><g><marker id="my-svg_flowchart-v2-pointEnd" class="marker flowchart-v2" viewBox="0 0 10 10" refX="5" refY="5" markerUnits="userSpaceOnUse" markerWidth="8" markerHeight="8" orient="auto"><path d="M 0 0 L 10 5 L 0 10 z" class="arrowMarkerPath" style="stroke-width: 1; stroke-dasharray: 1, 0;"/></marker><marker id="my-svg_flowchart-v2-pointStart" class="marker flowchart-v2" viewBox="0 0 10 10" refX="4.5" refY="5" markerUnits="userSpaceOnUse" markerWidth="8" markerHeight="8" orient="auto"><path d="M 0 5 L 10 10 L 10 0 z" class="arrowMarkerPath" style="stroke-width: 1; stroke-dasharray: 1, 0;"/></marker><marker id="my-svg_flowchart-v2-pointEnd-margin" class="marker flowchart-v2" viewBox="0 0 11.5 14" refX="11.5" refY="7" markerUnits="userSpaceOnUse" markerWidth="10.5" markerHeight="14" orient="auto"><path d="M 0 0 L 11.5 7 L 0 14 z" class="arrowMarkerPath" style="stroke-width: 0; stroke-dasharray: 1, 0;"/></marker><marker id="my-svg_flowchart-v2-pointStart-margin" class="marker flowchart-v2" viewBox="0 0 11.5 14" refX="1" refY="7" markerUnits="userSpaceOnUse" markerWidth="11.5" markerHeight="14" orient="auto"><polygon points="0,7 11.5,14 11.5,0" class="arrowMarkerPath" style="stroke-width: 0; stroke-dasharray: 1, 0;"/></marker><marker id="my-svg_flowchart-v2-circleEnd" class="marker flowchart-v2" viewBox="0 0 10 10" refX="11" refY="5" markerUnits="userSpaceOnUse" markerWidth="11" markerHeight="11" orient="auto"><circle cx="5" cy="5" r="5" class="arrowMarkerPath" style="stroke-width: 1; stroke-dasharray: 1, 0;"/></marker><marker id="my-svg_flowchart-v2-circleStart" class="marker flowchart-v2" viewBox="0 0 10 10" refX="-1" refY="5" markerUnits="userSpaceOnUse" markerWidth="11" markerHeight="11" orient="auto"><circle cx="5" cy="5" r="5" class="arrowMarkerPath" style="stroke-width: 1; stroke-dasharray: 1, 0;"/></marker><marker id="my-svg_flowchart-v2-circleEnd-margin" class="marker flowchart-v2" viewBox="0 0 10 10" refY="5" refX="12.25" markerUnits="userSpaceOnUse" markerWidth="14" markerHeight="14" orient="auto"><circle cx="5" cy="5" r="5" class="arrowMarkerPath" style="stroke-width: 0; stroke-dasharray: 1, 0;"/></marker><marker id="my-svg_flowchart-v2-circleStart-margin" class="marker flowchart-v2" viewBox="0 0 10 10" refX="-2" refY="5" markerUnits="userSpaceOnUse" markerWidth="14" markerHeight="14" orient="auto"><circle cx="5" cy="5" r="5" class="arrowMarkerPath" style="stroke-width: 0; stroke-dasharray: 1, 0;"/></marker><marker id="my-svg_flowchart-v2-crossEnd" class="marker cross flowchart-v2" viewBox="0 0 11 11" refX="12" refY="5.2" markerUnits="userSpaceOnUse" markerWidth="11" markerHeight="11" orient="auto"><path d="M 1,1 l 9,9 M 10,1 l -9,9" class="arrowMarkerPath" style="stroke-width: 2; stroke-dasharray: 1, 0;"/></marker><marker id="my-svg_flowchart-v2-crossStart" class="marker cross flowchart-v2" viewBox="0 0 11 11" refX="-1" refY="5.2" markerUnits="userSpaceOnUse" markerWidth="11" markerHeight="11" orient="auto"><path d="M 1,1 l 9,9 M 10,1 l -9,9" class="arrowMarkerPath" style="stroke-width: 2; stroke-dasharray: 1, 0;"/></marker><marker id="my-svg_flowchart-v2-crossEnd-margin" class="marker cross flowchart-v2" viewBox="0 0 15 15" refX="17.7" refY="7.5" markerUnits="userSpaceOnUse" markerWidth="12" markerHeight="12" orient="auto"><path d="M 1,1 L 14,14 M 1,14 L 14,1" class="arrowMarkerPath" style="stroke-width: 2.5;"/></marker><marker id="my-svg_flowchart-v2-crossStart-margin" class="marker cross flowchart-v2" viewBox="0 0 15 15" refX="-3.5" refY="7.5" markerUnits="userSpaceOnUse" markerWidth="12" markerHeight="12" orient="auto"><path d="M 1,1 L 14,14 M 1,14 L 14,1" class="arrowMarkerPath" style="stroke-width: 2.5; stroke-dasharray: 1, 0;"/></marker><g class="root"><g class="clusters"><g class="cluster" id="my-svg-SPEC" data-look="classic"><rect style="" x="369.83984375" y="206" width="459.3671875" height="674.71875"/><g class="cluster-label" transform="translate(510.5859375, 206)"><foreignObject width="177.875" height="24"><div xmlns="http://www.w3.org/1999/xhtml" style="display: table-cell; white-space: nowrap; line-height: 1.5;"><span class="nodeLabel"><p>2 · Requirements &amp; Spec</p></span></div></foreignObject></g></g></g><g class="edgePaths"><path d="M567.32,285L567.32,289.167C567.32,293.333,567.32,301.667,567.32,309.333C567.32,317,567.32,324,567.32,327.5L567.32,331" id="my-svg-L_S1_S2_0" class="edge-thickness-normal edge-pattern-solid edge-thickness-normal edge-pattern-solid flowchart-link" style=";" data-edge="true" data-et="edge" data-id="L_S1_S2_0" data-points="W3sieCI6NTY3LjMyMDMxMjUsInkiOjI4NX0seyJ4Ijo1NjcuMzIwMzEyNSwieSI6MzEwfSx7IngiOjU2Ny4zMjAzMTI1LCJ5IjozMzV9XQ==" data-look="classic" marker-end="url(#my-svg_flowchart-v2-pointEnd)"/><path d="M567.32,389L567.32,393.167C567.32,397.333,567.32,405.667,567.32,413.333C567.32,421,567.32,428,567.32,431.5L567.32,435" id="my-svg-L_S2_S3_0" class="edge-thickness-normal edge-pattern-solid edge-thickness-normal edge-pattern-solid flowchart-link" style=";" data-edge="true" data-et="edge" data-id="L_S2_S3_0" data-points="W3sieCI6NTY3LjMyMDMxMjUsInkiOjM4OX0seyJ4Ijo1NjcuMzIwMzEyNSwieSI6NDE0fSx7IngiOjU2Ny4zMjAzMTI1LCJ5Ijo0Mzl9XQ==" data-look="classic" marker-end="url(#my-svg_flowchart-v2-pointEnd)"/><path d="M567.32,517L567.32,521.167C567.32,525.333,567.32,533.667,567.32,541.333C567.32,549,567.32,556,567.32,559.5L567.32,563" id="my-svg-L_S3_S4_0" class="edge-thickness-normal edge-pattern-solid edge-thickness-normal edge-pattern-solid flowchart-link" style=";" data-edge="true" data-et="edge" data-id="L_S3_S4_0" data-points="W3sieCI6NTY3LjMyMDMxMjUsInkiOjUxN30seyJ4Ijo1NjcuMzIwMzEyNSwieSI6NTQyfSx7IngiOjU2Ny4zMjAzMTI1LCJ5Ijo1Njd9XQ==" data-look="classic" marker-end="url(#my-svg_flowchart-v2-pointEnd)"/><path d="M604.682,690.357L615.451,702.751C626.22,715.144,647.759,739.932,658.528,757.825C669.297,775.719,669.297,786.719,669.297,792.219L669.297,797.719" id="my-svg-L_S4_S5_0" class="edge-thickness-normal edge-pattern-solid edge-thickness-normal edge-pattern-solid flowchart-link" style=";" data-edge="true" data-et="edge" data-id="L_S4_S5_0" data-points="W3sieCI6NjA0LjY4MjA1NTA0MjI5NzQsInkiOjY5MC4zNTcwMDc0NTc3MDI2fSx7IngiOjY2OS4yOTY4NzUsInkiOjc2NC43MTg3NX0seyJ4Ijo2NjkuMjk2ODc1LCJ5Ijo4MDEuNzE4NzV9XQ==" data-look="classic" marker-end="url(#my-svg_flowchart-v2-pointEnd)"/><path d="M839.141,2314.328L839.141,2320.495C839.141,2326.661,839.141,2338.995,839.215,2350.745C839.29,2362.495,839.438,2373.662,839.513,2379.245L839.587,2384.828" id="my-svg-L_DG_DONE_0" class="edge-thickness-normal edge-pattern-solid edge-thickness-normal edge-pattern-solid flowchart-link" style=";" data-edge="true" data-et="edge" data-id="L_DG_DONE_0" data-points="W3sieCI6ODM5LjE0MDYyNSwieSI6MjMxNC4zMjgxMjV9LHsieCI6ODM5LjE0MDYyNSwieSI6MjM1MS4zMjgxMjV9LHsieCI6ODM5LjY0MDYyNSwieSI6MjM4OC44MjgxMjV9XQ==" data-look="classic" marker-end="url(#my-svg_flowchart-v2-pointEnd)"/><path d="M472.34,113.5L472.34,124.75C472.34,136,472.34,158.5,472.34,173.25C472.34,188,472.34,195,472.34,198.5L472.34,202" id="my-svg-L_IN_SPEC_0" class="edge-thickness-normal edge-pattern-solid edge-thickness-normal edge-pattern-solid flowchart-link" style=";" data-edge="true" data-et="edge" data-id="L_IN_SPEC_0" data-points="W3sieCI6NDcyLjgzOTg0Mzc1LCJ5IjoxMTR9LHsieCI6NDcyLjMzOTg0Mzc1LCJ5IjoxODF9LHsieCI6NDcyLjMzOTg0Mzc1LCJ5IjoyMDZ9LHsieCI6NTE4LjAwMzUzMDY0OTAzODUsInkiOjIzMX1d" data-look="classic" marker-end="url(#my-svg_flowchart-v2-pointEnd)"/><path d="M504.876,727.719L500.084,733.885C495.292,740.052,485.709,752.385,480.917,769.219C476.125,786.052,476.125,807.385,476.125,826.719C476.125,846.052,476.125,863.385,476.125,878.219C476.125,893.052,476.125,905.385,480.768,917.204C485.411,929.022,494.698,940.325,499.341,945.977L503.984,951.628" id="my-svg-L_S4_TEST_0" class="edge-thickness-normal edge-pattern-solid edge-thickness-normal edge-pattern-solid flowchart-link" style=";" data-edge="true" data-et="edge" data-id="L_S4_TEST_0" data-points="W3sieCI6NTA0Ljg3NjIzMTUyNzA5MzYsInkiOjcyNy43MTg3NX0seyJ4Ijo0NzYuMTI1LCJ5Ijo3NjQuNzE4NzV9LHsieCI6NDc2LjEyNSwieSI6ODI4LjcxODc1fSx7IngiOjQ3Ni4xMjUsInkiOjg4MC43MTg3NX0seyJ4Ijo0NzYuMTI1LCJ5Ijo5MTcuNzE4NzV9LHsieCI6NTA2LjUyMzQzNzUsInkiOjk1NC43MTg3NX1d" data-look="classic" marker-end="url(#my-svg_flowchart-v2-pointEnd)"/><path d="M669.297,855.719L669.297,859.885C669.297,864.052,669.297,872.385,669.297,882.719C669.297,893.052,669.297,905.385,664.083,917.228C658.868,929.07,648.44,940.422,643.225,946.097L638.011,951.773" id="my-svg-L_S5_TEST_0" class="edge-thickness-normal edge-pattern-solid edge-thickness-normal edge-pattern-solid flowchart-link" style=";" data-edge="true" data-et="edge" data-id="L_S5_TEST_0" data-points="W3sieCI6NjY5LjI5Njg3NSwieSI6ODU1LjcxODc1fSx7IngiOjY2OS4yOTY4NzUsInkiOjg4MC43MTg3NX0seyJ4Ijo2NjkuMjk2ODc1LCJ5Ijo5MTcuNzE4NzV9LHsieCI6NjM1LjMwNDY4NzUsInkiOjk1NC43MTg3NX1d" data-look="classic" marker-end="url(#my-svg_flowchart-v2-pointEnd)"/><path d="M567.32,1102.719L567.32,1106.885C567.32,1111.052,567.32,1119.385,567.32,1127.052C567.32,1134.719,567.32,1141.719,567.32,1145.219L567.32,1148.719" id="my-svg-L_TEST_IMPL_0" class="edge-thickness-normal edge-pattern-solid edge-thickness-normal edge-pattern-solid flowchart-link" style=";" data-edge="true" data-et="edge" data-id="L_TEST_IMPL_0" data-points="W3sieCI6NTY3LjMyMDMxMjUsInkiOjExMDIuNzE4NzV9LHsieCI6NTY3LjMyMDMxMjUsInkiOjExMjcuNzE4NzV9LHsieCI6NTY3LjMyMDMxMjUsInkiOjExNTIuNzE4NzV9XQ==" data-look="classic" marker-end="url(#my-svg_flowchart-v2-pointEnd)"/><path d="M567.32,1368.328L567.32,1372.495C567.32,1376.661,567.32,1384.995,567.32,1392.661C567.32,1400.328,567.32,1407.328,567.32,1410.828L567.32,1414.328" id="my-svg-L_IMPL_INT_0" class="edge-thickness-normal edge-pattern-solid edge-thickness-normal edge-pattern-solid flowchart-link" style=";" data-edge="true" data-et="edge" data-id="L_IMPL_INT_0" data-points="W3sieCI6NTY3LjMyMDMxMjUsInkiOjEzNjguMzI4MTI1fSx7IngiOjU2Ny4zMjAzMTI1LCJ5IjoxMzkzLjMyODEyNX0seyJ4Ijo1NjcuMzIwMzEyNSwieSI6MTQxOC4zMjgxMjV9XQ==" data-look="classic" marker-end="url(#my-svg_flowchart-v2-pointEnd)"/><path d="M567.32,1542.328L567.32,1546.495C567.32,1550.661,567.32,1558.995,567.32,1566.661C567.32,1574.328,567.32,1581.328,567.32,1584.828L567.32,1588.328" id="my-svg-L_INT_REL_0" class="edge-thickness-normal edge-pattern-solid edge-thickness-normal edge-pattern-solid flowchart-link" style=";" data-edge="true" data-et="edge" data-id="L_INT_REL_0" data-points="W3sieCI6NTY3LjMyMDMxMjUsInkiOjE1NDIuMzI4MTI1fSx7IngiOjU2Ny4zMjAzMTI1LCJ5IjoxNTY3LjMyODEyNX0seyJ4Ijo1NjcuMzIwMzEyNSwieSI6MTU5Mi4zMjgxMjV9XQ==" data-look="classic" marker-end="url(#my-svg_flowchart-v2-pointEnd)"/><path d="M417.571,1740.328L409.14,1744.495C400.708,1748.661,383.844,1756.995,375.412,1764.661C366.98,1772.328,366.98,1779.328,366.98,1782.828L366.98,1786.328" id="my-svg-L_REL_OBS_0" class="edge-thickness-normal edge-pattern-solid edge-thickness-normal edge-pattern-solid flowchart-link" style=";" data-edge="true" data-et="edge" data-id="L_REL_OBS_0" data-points="W3sieCI6NDE3LjU3MTMzODM4MzgzODQsInkiOjE3NDAuMzI4MTI1fSx7IngiOjM2Ni45ODA0Njg3NSwieSI6MTc2NS4zMjgxMjV9LHsieCI6MzY2Ljk4MDQ2ODc1LCJ5IjoxNzkwLjMyODEyNX1d" data-look="classic" marker-end="url(#my-svg_flowchart-v2-pointEnd)"/><path d="M366.98,1962.328L366.98,1966.495C366.98,1970.661,366.98,1978.995,419.882,2002.881C472.784,2026.767,578.589,2066.206,631.491,2085.926L684.393,2105.645" id="my-svg-L_OBS_DG_0" class="edge-thickness-normal edge-pattern-solid edge-thickness-normal edge-pattern-solid flowchart-link" style=";" data-edge="true" data-et="edge" data-id="L_OBS_DG_0" data-points="W3sieCI6MzY2Ljk4MDQ2ODc1LCJ5IjoxOTYyLjMyODEyNX0seyJ4IjozNjYuOTgwNDY4NzUsInkiOjE5ODcuMzI4MTI1fSx7IngiOjY4OC4xNDA2MjUsInkiOjIxMDcuMDQyMTM4ODgyMzM5M31d" data-look="classic" marker-end="url(#my-svg_flowchart-v2-pointEnd)"/><path d="M839.141,2012.328L839.141,2008.161C839.141,2003.995,839.141,1995.661,839.141,1972.995C839.141,1950.328,839.141,1913.328,839.141,1876.328C839.141,1839.328,839.141,1802.328,828.327,1779.89C817.513,1757.451,795.885,1749.574,785.071,1745.636L774.258,1741.697" id="my-svg-L_DG_REL_0" class="edge-thickness-normal edge-pattern-solid edge-thickness-normal edge-pattern-solid flowchart-link" style=";" data-edge="true" data-et="edge" data-id="L_DG_REL_0" data-points="W3sieCI6ODM5LjE0MDYyNSwieSI6MjAxMi4zMjgxMjV9LHsieCI6ODM5LjE0MDYyNSwieSI6MTk4Ny4zMjgxMjV9LHsieCI6ODM5LjE0MDYyNSwieSI6MTg3Ni4zMjgxMjV9LHsieCI6ODM5LjE0MDYyNSwieSI6MTc2NS4zMjgxMjV9LHsieCI6NzcwLjQ5OTEzMTk0NDQ0NDUsInkiOjE3NDAuMzI4MTI1fV0=" data-look="classic" marker-end="url(#my-svg_flowchart-v2-pointEnd)"/><path d="M990.141,2080.922L1018.724,2065.323C1047.307,2049.724,1104.474,2018.526,1133.057,1984.427C1161.641,1950.328,1161.641,1913.328,1161.641,1876.328C1161.641,1839.328,1161.641,1802.328,1161.641,1767.328C1161.641,1732.328,1161.641,1699.328,1161.641,1666.328C1161.641,1633.328,1161.641,1600.328,1161.641,1569.328C1161.641,1538.328,1161.641,1509.328,1161.641,1480.328C1161.641,1451.328,1161.641,1422.328,1161.641,1385.694C1161.641,1349.06,1161.641,1304.792,1161.641,1260.523C1161.641,1216.255,1161.641,1171.987,1161.641,1133.353C1161.641,1094.719,1161.641,1061.719,1161.641,1026.719C1161.641,991.719,1161.641,954.719,1161.641,930.052C1161.641,905.385,1161.641,893.052,1161.641,878.219C1161.641,863.385,1161.641,846.052,1161.641,826.719C1161.641,807.385,1161.641,786.052,1161.641,755.826C1161.641,725.599,1161.641,686.479,1161.641,649.359C1161.641,612.24,1161.641,577.12,1161.641,548.893C1161.641,520.667,1161.641,499.333,1161.641,478C1161.641,456.667,1161.641,435.333,1161.641,416C1161.641,396.667,1161.641,379.333,1161.641,362C1161.641,344.667,1161.641,327.333,1161.641,310C1161.641,292.667,1161.641,275.333,1161.641,258C1161.641,240.667,1161.641,223.333,1161.641,210.5C1161.641,197.667,1161.641,189.333,1156.79,181.408C1151.939,173.483,1142.238,165.967,1137.387,162.208L1132.537,158.45" id="my-svg-L_DG_ITER_0" class="edge-thickness-normal edge-pattern-solid edge-thickness-normal edge-pattern-solid flowchart-link" style=";" data-edge="true" data-et="edge" data-id="L_DG_ITER_0" data-points="W3sieCI6OTkwLjE0MDYyNSwieSI6MjA4MC45MjE5MjM0NDk2MTJ9LHsieCI6MTE2MS42NDA2MjUsInkiOjE5ODcuMzI4MTI1fSx7IngiOjExNjEuNjQwNjI1LCJ5IjoxODc2LjMyODEyNX0seyJ4IjoxMTYxLjY0MDYyNSwieSI6MTc2NS4zMjgxMjV9LHsieCI6MTE2MS42NDA2MjUsInkiOjE2NjYuMzI4MTI1fSx7IngiOjExNjEuNjQwNjI1LCJ5IjoxNTY3LjMyODEyNX0seyJ4IjoxMTYxLjY0MDYyNSwieSI6MTQ4MC4zMjgxMjV9LHsieCI6MTE2MS42NDA2MjUsInkiOjEzOTMuMzI4MTI1fSx7IngiOjExNjEuNjQwNjI1LCJ5IjoxMjYwLjUyMzQzNzV9LHsieCI6MTE2MS42NDA2MjUsInkiOjExMjcuNzE4NzV9LHsieCI6MTE2MS42NDA2MjUsInkiOjEwMjguNzE4NzV9LHsieCI6MTE2MS42NDA2MjUsInkiOjkxNy43MTg3NX0seyJ4IjoxMTYxLjY0MDYyNSwieSI6ODgwLjcxODc1fSx7IngiOjExNjEuNjQwNjI1LCJ5Ijo4MjguNzE4NzV9LHsieCI6MTE2MS42NDA2MjUsInkiOjc2NC43MTg3NX0seyJ4IjoxMTYxLjY0MDYyNSwieSI6NjQ3LjM1OTM3NX0seyJ4IjoxMTYxLjY0MDYyNSwieSI6NTQyfSx7IngiOjExNjEuNjQwNjI1LCJ5Ijo0Nzh9LHsieCI6MTE2MS42NDA2MjUsInkiOjQxNH0seyJ4IjoxMTYxLjY0MDYyNSwieSI6MzYyfSx7IngiOjExNjEuNjQwNjI1LCJ5IjozMTB9LHsieCI6MTE2MS42NDA2MjUsInkiOjI1OH0seyJ4IjoxMTYxLjY0MDYyNSwieSI6MjA2fSx7IngiOjExNjEuNjQwNjI1LCJ5IjoxODF9LHsieCI6MTEyOS4zNzQ2MDU0MjkyOTI4LCJ5IjoxNTZ9XQ==" data-look="classic" marker-end="url(#my-svg_flowchart-v2-pointEnd)"/><path d="M884.094,131.898L859.529,140.081C834.965,148.265,785.836,164.633,761.271,176.316C736.707,188,736.707,195,736.707,198.5L736.707,202" id="my-svg-L_ITER_SPEC_0" class="edge-thickness-normal edge-pattern-solid edge-thickness-normal edge-pattern-solid flowchart-link" style=";" data-edge="true" data-et="edge" data-id="L_ITER_SPEC_0" data-points="W3sieCI6ODg0LjA5Mzc1LCJ5IjoxMzEuODk3NTcyMDY4OTMzNzh9LHsieCI6NzM2LjcwNzAzMTI1LCJ5IjoxODF9LHsieCI6NzM2LjcwNzAzMTI1LCJ5IjoyMDZ9LHsieCI6NjU1LjI3MTEwODc3NDAzODUsInkiOjIzMX1d" data-look="classic" marker-end="url(#my-svg_flowchart-v2-pointEnd)"/></g><g class="edgeLabels"><g class="edgeLabel"><g class="label" data-id="L_S1_S2_0" transform="translate(0, 0)"><foreignObject width="0" height="0"><div xmlns="http://www.w3.org/1999/xhtml" class="labelBkg" style="display: table-cell; white-space: nowrap; line-height: 1.5; max-width: 200px; text-align: center;"><span class="edgeLabel"></span></div></foreignObject></g></g><g class="edgeLabel"><g class="label" data-id="L_S2_S3_0" transform="translate(0, 0)"><foreignObject width="0" height="0"><div xmlns="http://www.w3.org/1999/xhtml" class="labelBkg" style="display: table-cell; white-space: nowrap; line-height: 1.5; max-width: 200px; text-align: center;"><span class="edgeLabel"></span></div></foreignObject></g></g><g class="edgeLabel"><g class="label" data-id="L_S3_S4_0" transform="translate(0, 0)"><foreignObject width="0" height="0"><div xmlns="http://www.w3.org/1999/xhtml" class="labelBkg" style="display: table-cell; white-space: nowrap; line-height: 1.5; max-width: 200px; text-align: center;"><span class="edgeLabel"></span></div></foreignObject></g></g><g class="edgeLabel" transform="translate(669.296875, 764.71875)"><g class="label" data-id="L_S4_S5_0" transform="translate(-40.4609375, -12)"><foreignObject width="80.921875" height="24"><div xmlns="http://www.w3.org/1999/xhtml" class="labelBkg" style="display: table-cell; white-space: nowrap; line-height: 1.5; max-width: 200px; text-align: center;"><span class="edgeLabel"><p>Experiment</p></span></div></foreignObject></g></g><g class="edgeLabel" transform="translate(839.140625, 2351.328125)"><g class="label" data-id="L_DG_DONE_0" transform="translate(-30.234375, -12)"><foreignObject width="60.46875" height="24"><div xmlns="http://www.w3.org/1999/xhtml" class="labelBkg" style="display: table-cell; white-space: nowrap; line-height: 1.5; max-width: 200px; text-align: center;"><span class="edgeLabel"><p>Promote</p></span></div></foreignObject></g></g><g class="edgeLabel"><g class="label" data-id="L_IN_SPEC_0" transform="translate(0, 0)"><foreignObject width="0" height="0"><div xmlns="http://www.w3.org/1999/xhtml" class="labelBkg" style="display: table-cell; white-space: nowrap; line-height: 1.5; max-width: 200px; text-align: center;"><span class="edgeLabel"></span></div></foreignObject></g></g><g class="edgeLabel" transform="translate(476.125, 828.71875)"><g class="label" data-id="L_S4_TEST_0" transform="translate(-27.5703125, -12)"><foreignObject width="55.140625" height="24"><div xmlns="http://www.w3.org/1999/xhtml" class="labelBkg" style="display: table-cell; white-space: nowrap; line-height: 1.5; max-width: 200px; text-align: center;"><span class="edgeLabel"><p>Feature</p></span></div></foreignObject></g></g><g class="edgeLabel"><g class="label" data-id="L_S5_TEST_0" transform="translate(0, 0)"><foreignObject width="0" height="0"><div xmlns="http://www.w3.org/1999/xhtml" class="labelBkg" style="display: table-cell; white-space: nowrap; line-height: 1.5; max-width: 200px; text-align: center;"><span class="edgeLabel"></span></div></foreignObject></g></g><g class="edgeLabel"><g class="label" data-id="L_TEST_IMPL_0" transform="translate(0, 0)"><foreignObject width="0" height="0"><div xmlns="http://www.w3.org/1999/xhtml" class="labelBkg" style="display: table-cell; white-space: nowrap; line-height: 1.5; max-width: 200px; text-align: center;"><span class="edgeLabel"></span></div></foreignObject></g></g><g class="edgeLabel"><g class="label" data-id="L_IMPL_INT_0" transform="translate(0, 0)"><foreignObject width="0" height="0"><div xmlns="http://www.w3.org/1999/xhtml" class="labelBkg" style="display: table-cell; white-space: nowrap; line-height: 1.5; max-width: 200px; text-align: center;"><span class="edgeLabel"></span></div></foreignObject></g></g><g class="edgeLabel"><g class="label" data-id="L_INT_REL_0" transform="translate(0, 0)"><foreignObject width="0" height="0"><div xmlns="http://www.w3.org/1999/xhtml" class="labelBkg" style="display: table-cell; white-space: nowrap; line-height: 1.5; max-width: 200px; text-align: center;"><span class="edgeLabel"></span></div></foreignObject></g></g><g class="edgeLabel"><g class="label" data-id="L_REL_OBS_0" transform="translate(0, 0)"><foreignObject width="0" height="0"><div xmlns="http://www.w3.org/1999/xhtml" class="labelBkg" style="display: table-cell; white-space: nowrap; line-height: 1.5; max-width: 200px; text-align: center;"><span class="edgeLabel"></span></div></foreignObject></g></g><g class="edgeLabel"><g class="label" data-id="L_OBS_DG_0" transform="translate(0, 0)"><foreignObject width="0" height="0"><div xmlns="http://www.w3.org/1999/xhtml" class="labelBkg" style="display: table-cell; white-space: nowrap; line-height: 1.5; max-width: 200px; text-align: center;"><span class="edgeLabel"></span></div></foreignObject></g></g><g class="edgeLabel" transform="translate(839.140625, 1876.328125)"><g class="label" data-id="L_DG_REL_0" transform="translate(-30.6796875, -12)"><foreignObject width="61.359375" height="24"><div xmlns="http://www.w3.org/1999/xhtml" class="labelBkg" style="display: table-cell; white-space: nowrap; line-height: 1.5; max-width: 200px; text-align: center;"><span class="edgeLabel"><p>Rollback</p></span></div></foreignObject></g></g><g class="edgeLabel" transform="translate(1161.640625, 917.71875)"><g class="label" data-id="L_DG_ITER_0" transform="translate(-22.6796875, -12)"><foreignObject width="45.359375" height="24"><div xmlns="http://www.w3.org/1999/xhtml" class="labelBkg" style="display: table-cell; white-space: nowrap; line-height: 1.5; max-width: 200px; text-align: center;"><span class="edgeLabel"><p>Iterate</p></span></div></foreignObject></g></g><g class="edgeLabel"><g class="label" data-id="L_ITER_SPEC_0" transform="translate(0, 0)"><foreignObject width="0" height="0"><div xmlns="http://www.w3.org/1999/xhtml" class="labelBkg" style="display: table-cell; white-space: nowrap; line-height: 1.5; max-width: 200px; text-align: center;"><span class="edgeLabel"></span></div></foreignObject></g></g></g><g class="nodes"><g class="root" transform="translate(876.09375, 0)"><g class="clusters"><g class="cluster" id="my-svg-ITER" data-look="classic"><rect style="" x="8" y="8" width="299.546875" height="148"/><g class="cluster-label" transform="translate(117.75, 8)"><foreignObject width="80.046875" height="24"><div xmlns="http://www.w3.org/1999/xhtml" style="display: table-cell; white-space: nowrap; line-height: 1.5;"><span class="nodeLabel"><p>9 · Iteration</p></span></div></foreignObject></g></g></g><g class="edgePaths"/><g class="edgeLabels"/><g class="nodes"><g class="node default" id="my-svg-flowchart-IT1-32" data-look="classic" transform="translate(157.7734375, 82)"><rect class="basic label-container" style="" x="-112.2734375" y="-39" width="224.546875" height="78"/><g class="label" style="" transform="translate(-82.2734375, -24)"><rect/><foreignObject width="164.546875" height="48"><div xmlns="http://www.w3.org/1999/xhtml" style="display: table-cell; white-space: nowrap; line-height: 1.5; max-width: 200px; text-align: center;"><span class="nodeLabel"><p>Update spec &amp; backlog<br />→ /docs/decisions.md</p></span></div></foreignObject></g></g></g></g><g class="root" transform="translate(23.98046875, 1782.328125)"><g class="clusters"><g class="cluster" id="my-svg-OBS" data-look="classic"><rect style="" x="8" y="8" width="670" height="172"/><g class="cluster-label" transform="translate(240.7265625, 8)"><foreignObject width="204.546875" height="24"><div xmlns="http://www.w3.org/1999/xhtml" style="display: table-cell; white-space: nowrap; line-height: 1.5;"><span class="nodeLabel"><p>7 · Feedback &amp; Observability</p></span></div></foreignObject></g></g></g><g class="edgePaths"><path d="M305.5,94L311.75,94C318,94,330.5,94,342.333,94C354.167,94,365.333,94,370.917,94L376.5,94" id="my-svg-L_O1_O2_0" class="edge-thickness-normal edge-pattern-solid edge-thickness-normal edge-pattern-solid flowchart-link" style=";" data-edge="true" data-et="edge" data-id="L_O1_O2_0" data-points="W3sieCI6MzA1LjUsInkiOjk0fSx7IngiOjM0MywieSI6OTR9LHsieCI6MzgwLjUsInkiOjk0fV0=" data-look="classic" marker-end="url(#my-svg_flowchart-v2-pointEnd)"/></g><g class="edgeLabels"><g class="edgeLabel"><g class="label" data-id="L_O1_O2_0" transform="translate(0, 0)"><foreignObject width="0" height="0"><div xmlns="http://www.w3.org/1999/xhtml" class="labelBkg" style="display: table-cell; white-space: nowrap; line-height: 1.5; max-width: 200px; text-align: center;"><span class="edgeLabel"></span></div></foreignObject></g></g></g><g class="nodes"><g class="node default" id="my-svg-flowchart-O1-29" data-look="classic" transform="translate(175.5, 94)"><rect class="basic label-container" style="" x="-130" y="-51" width="260" height="102"/><g class="label" style="" transform="translate(-100, -36)"><rect/><foreignObject width="200" height="72"><div xmlns="http://www.w3.org/1999/xhtml" style="display: table; white-space: break-spaces; line-height: 1.5; max-width: 200px; text-align: center; width: 200px;"><span class="nodeLabel"><p>Collect logs, errors &amp; user feedback<br />→ /docs/feedback.md</p></span></div></foreignObject></g></g><g class="node default" id="my-svg-flowchart-O2-30" data-look="classic" transform="translate(510.5, 94)"><rect class="basic label-container" style="" x="-130" y="-39" width="260" height="78"/><g class="label" style="" transform="translate(-100, -24)"><rect/><foreignObject width="200" height="48"><div xmlns="http://www.w3.org/1999/xhtml" style="display: table; white-space: break-spaces; line-height: 1.5; max-width: 200px; text-align: center; width: 200px;"><span class="nodeLabel"><p>Review metrics &amp; system behavior</p></span></div></foreignObject></g></g></g></g><g class="root" transform="translate(255.3828125, 1584.328125)"><g class="clusters"><g class="cluster" id="my-svg-REL" data-look="classic"><rect style="" x="8" y="8" width="607.875" height="148"/><g class="cluster-label" transform="translate(271.46875, 8)"><foreignObject width="80.9375" height="24"><div xmlns="http://www.w3.org/1999/xhtml" style="display: table-cell; white-space: nowrap; line-height: 1.5;"><span class="nodeLabel"><p>6 · Release</p></span></div></foreignObject></g></g></g><g class="edgePaths"><path d="M243.375,82L249.625,82C255.875,82,268.375,82,280.208,82C292.042,82,303.208,82,308.792,82L314.375,82" id="my-svg-L_R1_R2_0" class="edge-thickness-normal edge-pattern-solid edge-thickness-normal edge-pattern-solid flowchart-link" style=";" data-edge="true" data-et="edge" data-id="L_R1_R2_0" data-points="W3sieCI6MjQzLjM3NSwieSI6ODJ9LHsieCI6MjgwLjg3NSwieSI6ODJ9LHsieCI6MzE4LjM3NSwieSI6ODJ9XQ==" data-look="classic" marker-end="url(#my-svg_flowchart-v2-pointEnd)"/></g><g class="edgeLabels"><g class="edgeLabel"><g class="label" data-id="L_R1_R2_0" transform="translate(0, 0)"><foreignObject width="0" height="0"><div xmlns="http://www.w3.org/1999/xhtml" class="labelBkg" style="display: table-cell; white-space: nowrap; line-height: 1.5; max-width: 200px; text-align: center;"><span class="edgeLabel"></span></div></foreignObject></g></g></g><g class="nodes"><g class="node default" id="my-svg-flowchart-R1-27" data-look="classic" transform="translate(144.4375, 82)"><rect class="basic label-container" style="" x="-98.9375" y="-27" width="197.875" height="54"/><g class="label" style="" transform="translate(-68.9375, -12)"><rect/><foreignObject width="137.875" height="24"><div xmlns="http://www.w3.org/1999/xhtml" style="display: table-cell; white-space: nowrap; line-height: 1.5; max-width: 200px; text-align: center;"><span class="nodeLabel"><p>Build &amp; deploy beta</p></span></div></foreignObject></g></g><g class="node default" id="my-svg-flowchart-R2-28" data-look="classic" transform="translate(448.375, 82)"><rect class="basic label-container" style="" x="-130" y="-39" width="260" height="78"/><g class="label" style="" transform="translate(-100, -24)"><rect/><foreignObject width="200" height="48"><div xmlns="http://www.w3.org/1999/xhtml" style="display: table; white-space: break-spaces; line-height: 1.5; max-width: 200px; text-align: center; width: 200px;"><span class="nodeLabel"><p>Staged rollout / feature flags [O][S]</p></span></div></foreignObject></g></g></g></g><g class="root" transform="translate(69.6796875, 1410.328125)"><g class="clusters"><g class="cluster" id="my-svg-INT" data-look="classic"><rect style="" x="8" y="8" width="979.28125" height="124"/><g class="cluster-label" transform="translate(448.71875, 8)"><foreignObject width="97.84375" height="24"><div xmlns="http://www.w3.org/1999/xhtml" style="display: table-cell; white-space: nowrap; line-height: 1.5;"><span class="nodeLabel"><p>5 · Integration</p></span></div></foreignObject></g></g></g><g class="edgePaths"><path d="M262.875,70L269.125,70C275.375,70,287.875,70,299.708,70C311.542,70,322.708,70,328.292,70L333.875,70" id="my-svg-L_G1_G2_0" class="edge-thickness-normal edge-pattern-solid edge-thickness-normal edge-pattern-solid flowchart-link" style=";" data-edge="true" data-et="edge" data-id="L_G1_G2_0" data-points="W3sieCI6MjYyLjg3NSwieSI6NzB9LHsieCI6MzAwLjM3NSwieSI6NzB9LHsieCI6MzM3Ljg3NSwieSI6NzB9XQ==" data-look="classic" marker-end="url(#my-svg_flowchart-v2-pointEnd)"/><path d="M463.688,70L469.938,70C476.188,70,488.688,70,500.521,70C512.354,70,523.521,70,529.104,70L534.688,70" id="my-svg-L_G2_G3_0" class="edge-thickness-normal edge-pattern-solid edge-thickness-normal edge-pattern-solid flowchart-link" style=";" data-edge="true" data-et="edge" data-id="L_G2_G3_0" data-points="W3sieCI6NDYzLjY4NzUsInkiOjcwfSx7IngiOjUwMS4xODc1LCJ5Ijo3MH0seyJ4Ijo1MzguNjg3NSwieSI6NzB9XQ==" data-look="classic" marker-end="url(#my-svg_flowchart-v2-pointEnd)"/><path d="M712.516,70L718.766,70C725.016,70,737.516,70,749.349,70C761.182,70,772.349,70,777.932,70L783.516,70" id="my-svg-L_G3_G4_0" class="edge-thickness-normal edge-pattern-solid edge-thickness-normal edge-pattern-solid flowchart-link" style=";" data-edge="true" data-et="edge" data-id="L_G3_G4_0" data-points="W3sieCI6NzEyLjUxNTYyNSwieSI6NzB9LHsieCI6NzUwLjAxNTYyNSwieSI6NzB9LHsieCI6Nzg3LjUxNTYyNSwieSI6NzB9XQ==" data-look="classic" marker-end="url(#my-svg_flowchart-v2-pointEnd)"/></g><g class="edgeLabels"><g class="edgeLabel"><g class="label" data-id="L_G1_G2_0" transform="translate(0, 0)"><foreignObject width="0" height="0"><div xmlns="http://www.w3.org/1999/xhtml" class="labelBkg" style="display: table-cell; white-space: nowrap; line-height: 1.5; max-width: 200px; text-align: center;"><span class="edgeLabel"></span></div></foreignObject></g></g><g class="edgeLabel"><g class="label" data-id="L_G2_G3_0" transform="translate(0, 0)"><foreignObject width="0" height="0"><div xmlns="http://www.w3.org/1999/xhtml" class="labelBkg" style="display: table-cell; white-space: nowrap; line-height: 1.5; max-width: 200px; text-align: center;"><span class="edgeLabel"></span></div></foreignObject></g></g><g class="edgeLabel"><g class="label" data-id="L_G3_G4_0" transform="translate(0, 0)"><foreignObject width="0" height="0"><div xmlns="http://www.w3.org/1999/xhtml" class="labelBkg" style="display: table-cell; white-space: nowrap; line-height: 1.5; max-width: 200px; text-align: center;"><span class="edgeLabel"></span></div></foreignObject></g></g></g><g class="nodes"><g class="node default" id="my-svg-flowchart-G1-21" data-look="classic" transform="translate(154.1875, 70)"><rect class="basic label-container" style="" x="-108.6875" y="-27" width="217.375" height="54"/><g class="label" style="" transform="translate(-78.6875, -12)"><rect/><foreignObject width="157.375" height="24"><div xmlns="http://www.w3.org/1999/xhtml" style="display: table-cell; white-space: nowrap; line-height: 1.5; max-width: 200px; text-align: center;"><span class="nodeLabel"><p>Commit with spec refs</p></span></div></foreignObject></g></g><g class="node default" id="my-svg-flowchart-G2-22" data-look="classic" transform="translate(400.78125, 70)"><rect class="basic label-container" style="" x="-62.90625" y="-27" width="125.8125" height="54"/><g class="label" style="" transform="translate(-32.90625, -12)"><rect/><foreignObject width="65.8125" height="24"><div xmlns="http://www.w3.org/1999/xhtml" style="display: table-cell; white-space: nowrap; line-height: 1.5; max-width: 200px; text-align: center;"><span class="nodeLabel"><p>Open PR</p></span></div></foreignObject></g></g><g class="node default" id="my-svg-flowchart-G3-24" data-look="classic" transform="translate(625.6015625, 70)"><rect class="basic label-container" style="" x="-86.9140625" y="-27" width="173.828125" height="54"/><g class="label" style="" transform="translate(-56.9140625, -12)"><rect/><foreignObject width="113.828125" height="24"><div xmlns="http://www.w3.org/1999/xhtml" style="display: table-cell; white-space: nowrap; line-height: 1.5; max-width: 200px; text-align: center;"><span class="nodeLabel"><p>Code review [H]</p></span></div></foreignObject></g></g><g class="node default" id="my-svg-flowchart-G4-26" data-look="classic" transform="translate(868.6484375, 70)"><rect class="basic label-container" style="" x="-81.1328125" y="-27" width="162.265625" height="54"/><g class="label" style="" transform="translate(-51.1328125, -12)"><rect/><foreignObject width="102.265625" height="24"><div xmlns="http://www.w3.org/1999/xhtml" style="display: table-cell; white-space: nowrap; line-height: 1.5; max-width: 200px; text-align: center;"><span class="nodeLabel"><p>Merge to main</p></span></div></foreignObject></g></g></g></g><g class="root" transform="translate(0, 1144.71875)"><g class="clusters"><g class="cluster" id="my-svg-IMPL" data-look="classic"><rect style="" x="8" y="8" width="1118.640625" height="215.609375"/><g class="cluster-label" transform="translate(501.5078125, 8)"><foreignObject width="131.625" height="24"><div xmlns="http://www.w3.org/1999/xhtml" style="display: table-cell; white-space: nowrap; line-height: 1.5;"><span class="nodeLabel"><p>4 · Implementation</p></span></div></foreignObject></g></g></g><g class="edgePaths"><path d="M271.828,115.805L278.078,115.805C284.328,115.805,296.828,115.805,308.661,115.805C320.495,115.805,331.661,115.805,337.245,115.805L342.828,115.805" id="my-svg-L_I1_I2_0" class="edge-thickness-normal edge-pattern-solid edge-thickness-normal edge-pattern-solid flowchart-link" style=";" data-edge="true" data-et="edge" data-id="L_I1_I2_0" data-points="W3sieCI6MjcxLjgyODEyNSwieSI6MTE1LjgwNDY4NzV9LHsieCI6MzA5LjMyODEyNSwieSI6MTE1LjgwNDY4NzV9LHsieCI6MzQ2LjgyODEyNSwieSI6MTE1LjgwNDY4NzV9XQ==" data-look="classic" marker-end="url(#my-svg_flowchart-v2-pointEnd)"/><path d="M526.602,88.805L535.641,85.988C544.68,83.171,562.758,77.536,582.365,78.569C601.971,79.601,623.107,87.299,633.675,91.148L644.242,94.997" id="my-svg-L_I2_I3_0" class="edge-thickness-normal edge-pattern-solid edge-thickness-normal edge-pattern-solid flowchart-link" style=";" data-edge="true" data-et="edge" data-id="L_I2_I3_0" data-points="W3sieCI6NTI2LjYwMjI1ODMxOTI0NTUsInkiOjg4LjgwNDY4NzV9LHsieCI6NTgwLjgzNTkzNzUsInkiOjcxLjkwMjM0Mzc1fSx7IngiOjY0OC4wMDA3MjAyODI5OTA5LCJ5Ijo5Ni4zNjY0NjcyMTcwMDkxNH1d" data-look="classic" marker-end="url(#my-svg_flowchart-v2-pointEnd)"/><path d="M645.98,133.222L635.122,136.636C624.265,140.05,602.551,146.879,584.383,148.326C566.215,149.773,551.593,145.839,544.283,143.872L536.972,141.905" id="my-svg-L_I3_I2_0" class="edge-thickness-normal edge-pattern-solid edge-thickness-normal edge-pattern-solid flowchart-link" style=";" data-edge="true" data-et="edge" data-id="L_I3_I2_0" data-points="W3sieCI6NjQ1Ljk3OTY5MTgxNDcwMiwieSI6MTMzLjIyMTg3OTMxNDcwMjA1fSx7IngiOjU4MC44MzU5Mzc1LCJ5IjoxNTMuNzA3MDMxMjV9LHsieCI6NTMzLjEwOTM3NSwieSI6MTQwLjg2NTUxMjg2NjcyOTUyfV0=" data-look="classic" marker-end="url(#my-svg_flowchart-v2-pointEnd)"/><path d="M774.172,115.805L782.598,115.805C791.023,115.805,807.875,115.805,824.06,115.805C840.245,115.805,855.763,115.805,863.522,115.805L871.281,115.805" id="my-svg-L_I3_I4_0" class="edge-thickness-normal edge-pattern-solid edge-thickness-normal edge-pattern-solid flowchart-link" style=";" data-edge="true" data-et="edge" data-id="L_I3_I4_0" data-points="W3sieCI6Nzc0LjE3MTg3NSwieSI6MTE1LjgwNDY4NzV9LHsieCI6ODI0LjcyNjU2MjUsInkiOjExNS44MDQ2ODc1fSx7IngiOjg3NS4yODEyNSwieSI6MTE1LjgwNDY4NzV9XQ==" data-look="classic" marker-end="url(#my-svg_flowchart-v2-pointEnd)"/></g><g class="edgeLabels"><g class="edgeLabel"><g class="label" data-id="L_I1_I2_0" transform="translate(0, 0)"><foreignObject width="0" height="0"><div xmlns="http://www.w3.org/1999/xhtml" class="labelBkg" style="display: table-cell; white-space: nowrap; line-height: 1.5; max-width: 200px; text-align: center;"><span class="edgeLabel"></span></div></foreignObject></g></g><g class="edgeLabel"><g class="label" data-id="L_I2_I3_0" transform="translate(0, 0)"><foreignObject width="0" height="0"><div xmlns="http://www.w3.org/1999/xhtml" class="labelBkg" style="display: table-cell; white-space: nowrap; line-height: 1.5; max-width: 200px; text-align: center;"><span class="edgeLabel"></span></div></foreignObject></g></g><g class="edgeLabel" transform="translate(589.83391, 150.87752)"><g class="label" data-id="L_I3_I2_0" transform="translate(-10.2265625, -12)"><foreignObject width="20.453125" height="24"><div xmlns="http://www.w3.org/1999/xhtml" class="labelBkg" style="display: table-cell; white-space: nowrap; line-height: 1.5; max-width: 200px; text-align: center;"><span class="edgeLabel"><p>No</p></span></div></foreignObject></g></g><g class="edgeLabel" transform="translate(824.7265625, 115.8046875)"><g class="label" data-id="L_I3_I4_0" transform="translate(-13.0546875, -12)"><foreignObject width="26.109375" height="24"><div xmlns="http://www.w3.org/1999/xhtml" class="labelBkg" style="display: table-cell; white-space: nowrap; line-height: 1.5; max-width: 200px; text-align: center;"><span class="edgeLabel"><p>Yes</p></span></div></foreignObject></g></g></g><g class="nodes"><g class="node default" id="my-svg-flowchart-I1-13" data-look="classic" transform="translate(158.6640625, 115.8046875)"><rect class="basic label-container" style="" x="-113.1640625" y="-27" width="226.328125" height="54"/><g class="label" style="" transform="translate(-83.1640625, -12)"><rect/><foreignObject width="166.328125" height="24"><div xmlns="http://www.w3.org/1999/xhtml" style="display: table-cell; white-space: nowrap; line-height: 1.5; max-width: 200px; text-align: center;"><span class="nodeLabel"><p>Create feature/* branch</p></span></div></foreignObject></g></g><g class="node default" id="my-svg-flowchart-I2-14" data-look="classic" transform="translate(439.96875, 115.8046875)"><rect class="basic label-container" style="" x="-93.140625" y="-27" width="186.28125" height="54"/><g class="label" style="" transform="translate(-63.140625, -12)"><rect/><foreignObject width="126.28125" height="24"><div xmlns="http://www.w3.org/1999/xhtml" style="display: table-cell; white-space: nowrap; line-height: 1.5; max-width: 200px; text-align: center;"><span class="nodeLabel"><p>Implement with AI</p></span></div></foreignObject></g></g><g class="node default" id="my-svg-flowchart-I3-16" data-look="classic" transform="translate(701.3671875, 115.8046875)"><polygon points="72.8046875,0 145.609375,-72.8046875 72.8046875,-145.609375 0,-72.8046875" class="label-container" transform="translate(-72.3046875, 72.8046875)"/><g class="label" style="" transform="translate(-45.8046875, -12)"><rect/><foreignObject width="91.609375" height="24"><div xmlns="http://www.w3.org/1999/xhtml" style="display: table-cell; white-space: nowrap; line-height: 1.5; max-width: 200px; text-align: center;"><span class="nodeLabel"><p>Tests green?</p></span></div></foreignObject></g></g><g class="node default" id="my-svg-flowchart-I4-20" data-look="classic" transform="translate(982.2109375, 115.8046875)"><rect class="basic label-container" style="" x="-106.9296875" y="-27" width="213.859375" height="54"/><g class="label" style="" transform="translate(-76.9296875, -12)"><rect/><foreignObject width="153.859375" height="24"><div xmlns="http://www.w3.org/1999/xhtml" style="display: table-cell; white-space: nowrap; line-height: 1.5; max-width: 200px; text-align: center;"><span class="nodeLabel"><p>Refactor continuously</p></span></div></foreignObject></g></g></g></g><g class="root" transform="translate(116.7734375, 946.71875)"><g class="clusters"><g class="cluster" id="my-svg-TEST" data-look="classic"><rect style="" x="8" y="8" width="885.09375" height="148"/><g class="cluster-label" transform="translate(389.328125, 8)"><foreignObject width="122.4375" height="24"><div xmlns="http://www.w3.org/1999/xhtml" style="display: table-cell; white-space: nowrap; line-height: 1.5;"><span class="nodeLabel"><p>3 · Test Definition</p></span></div></foreignObject></g></g></g><g class="edgePaths"><path d="M262.031,82L268.281,82C274.531,82,287.031,82,298.865,82C310.698,82,321.865,82,327.448,82L333.031,82" id="my-svg-L_T1_T2_0" class="edge-thickness-normal edge-pattern-solid edge-thickness-normal edge-pattern-solid flowchart-link" style=";" data-edge="true" data-et="edge" data-id="L_T1_T2_0" data-points="W3sieCI6MjYyLjAzMTI1LCJ5Ijo4Mn0seyJ4IjoyOTkuNTMxMjUsInkiOjgyfSx7IngiOjMzNy4wMzEyNSwieSI6ODJ9XQ==" data-look="classic" marker-end="url(#my-svg_flowchart-v2-pointEnd)"/><path d="M597.031,82L603.281,82C609.531,82,622.031,82,633.865,82C645.698,82,656.865,82,662.448,82L668.031,82" id="my-svg-L_T2_T3_0" class="edge-thickness-normal edge-pattern-solid edge-thickness-normal edge-pattern-solid flowchart-link" style=";" data-edge="true" data-et="edge" data-id="L_T2_T3_0" data-points="W3sieCI6NTk3LjAzMTI1LCJ5Ijo4Mn0seyJ4Ijo2MzQuNTMxMjUsInkiOjgyfSx7IngiOjY3Mi4wMzEyNSwieSI6ODJ9XQ==" data-look="classic" marker-end="url(#my-svg_flowchart-v2-pointEnd)"/></g><g class="edgeLabels"><g class="edgeLabel"><g class="label" data-id="L_T1_T2_0" transform="translate(0, 0)"><foreignObject width="0" height="0"><div xmlns="http://www.w3.org/1999/xhtml" class="labelBkg" style="display: table-cell; white-space: nowrap; line-height: 1.5; max-width: 200px; text-align: center;"><span class="edgeLabel"></span></div></foreignObject></g></g><g class="edgeLabel"><g class="label" data-id="L_T2_T3_0" transform="translate(0, 0)"><foreignObject width="0" height="0"><div xmlns="http://www.w3.org/1999/xhtml" class="labelBkg" style="display: table-cell; white-space: nowrap; line-height: 1.5; max-width: 200px; text-align: center;"><span class="edgeLabel"></span></div></foreignObject></g></g></g><g class="nodes"><g class="node default" id="my-svg-flowchart-T1-9" data-look="classic" transform="translate(153.765625, 82)"><rect class="basic label-container" style="" x="-108.265625" y="-27" width="216.53125" height="54"/><g class="label" style="" transform="translate(-78.265625, -12)"><rect/><foreignObject width="156.53125" height="24"><div xmlns="http://www.w3.org/1999/xhtml" style="display: table-cell; white-space: nowrap; line-height: 1.5; max-width: 200px; text-align: center;"><span class="nodeLabel"><p>Generate tests with AI</p></span></div></foreignObject></g></g><g class="node default" id="my-svg-flowchart-T2-10" data-look="classic" transform="translate(467.03125, 82)"><rect class="basic label-container" style="" x="-130" y="-39" width="260" height="78"/><g class="label" style="" transform="translate(-100, -24)"><rect/><foreignObject width="200" height="48"><div xmlns="http://www.w3.org/1999/xhtml" style="display: table; white-space: break-spaces; line-height: 1.5; max-width: 200px; text-align: center; width: 200px;"><span class="nodeLabel"><p>Add behavioral &amp; adversarial cases [H]</p></span></div></foreignObject></g></g><g class="node default" id="my-svg-flowchart-T3-12" data-look="classic" transform="translate(763.8125, 82)"><rect class="basic label-container" style="" x="-91.78125" y="-27" width="183.5625" height="54"/><g class="label" style="" transform="translate(-61.78125, -12)"><rect/><foreignObject width="123.5625" height="24"><div xmlns="http://www.w3.org/1999/xhtml" style="display: table-cell; white-space: nowrap; line-height: 1.5; max-width: 200px; text-align: center;"><span class="nodeLabel"><p>Commit tests first</p></span></div></foreignObject></g></g></g></g><g class="node default" id="my-svg-flowchart-IN-0" data-look="classic" transform="translate(472.33984375, 82)"><polygon points="-31.5,0 215,0 246.5,-63 0,-63" class="label-container" transform="translate(-107.5,31.5)"/><g class="label" style="" transform="translate(-100, -24)"><rect/><foreignObject width="200" height="48"><div xmlns="http://www.w3.org/1999/xhtml" style="display: table; white-space: break-spaces; line-height: 1.5; max-width: 200px; text-align: center; width: 200px;"><span class="nodeLabel"><p>📥 Raw Inputs · /docs/inputs.md</p></span></div></foreignObject></g></g><g class="node default" id="my-svg-flowchart-S1-1" data-look="classic" transform="translate(567.3203125, 258)"><rect class="basic label-container" style="" x="-92.25" y="-27" width="184.5" height="54"/><g class="label" style="" transform="translate(-62.25, -12)"><rect/><foreignObject width="124.5" height="24"><div xmlns="http://www.w3.org/1999/xhtml" style="display: table-cell; white-space: nowrap; line-height: 1.5; max-width: 200px; text-align: center;"><span class="nodeLabel"><p>Draft spec with AI</p></span></div></foreignObject></g></g><g class="node default" id="my-svg-flowchart-S2-2" data-look="classic" transform="translate(567.3203125, 362)"><rect class="basic label-container" style="" x="-98.46875" y="-27" width="196.9375" height="54"/><g class="label" style="" transform="translate(-68.46875, -12)"><rect/><foreignObject width="136.9375" height="24"><div xmlns="http://www.w3.org/1999/xhtml" style="display: table-cell; white-space: nowrap; line-height: 1.5; max-width: 200px; text-align: center;"><span class="nodeLabel"><p>Review &amp; refine [H]</p></span></div></foreignObject></g></g><g class="node default" id="my-svg-flowchart-S3-4" data-look="classic" transform="translate(567.3203125, 478)"><rect class="basic label-container" style="" x="-130" y="-39" width="260" height="78"/><g class="label" style="" transform="translate(-100, -24)"><rect/><foreignObject width="200" height="48"><div xmlns="http://www.w3.org/1999/xhtml" style="display: table; white-space: break-spaces; line-height: 1.5; max-width: 200px; text-align: center; width: 200px;"><span class="nodeLabel"><p>Convert to acceptance criteria</p></span></div></foreignObject></g></g><g class="node default" id="my-svg-flowchart-S4-6" data-look="classic" transform="translate(567.3203125, 647.359375)"><polygon points="80.359375,0 160.71875,-80.359375 80.359375,-160.71875 0,-80.359375" class="label-container" transform="translate(-79.859375, 80.359375)"/><g class="label" style="" transform="translate(-41.359375, -24)"><rect/><foreignObject width="82.71875" height="48"><div xmlns="http://www.w3.org/1999/xhtml" style="display: table-cell; white-space: nowrap; line-height: 1.5; max-width: 200px; text-align: center;"><span class="nodeLabel"><p>Experiment<br />or Feature?</p></span></div></foreignObject></g></g><g class="node default" id="my-svg-flowchart-S5-8" data-look="classic" transform="translate(669.296875, 828.71875)"><rect class="basic label-container" style="" x="-119.8203125" y="-27" width="239.640625" height="54"/><g class="label" style="" transform="translate(-89.8203125, -12)"><rect/><foreignObject width="179.640625" height="24"><div xmlns="http://www.w3.org/1999/xhtml" style="display: table-cell; white-space: nowrap; line-height: 1.5; max-width: 200px; text-align: center;"><span class="nodeLabel"><p>Create spike/* branch [O]</p></span></div></foreignObject></g></g><g class="node default" id="my-svg-flowchart-DG-31" data-look="classic" transform="translate(839.140625, 2163.328125)"><polygon points="151,0 302,-151 151,-302 0,-151" class="label-container" transform="translate(-150.5, 151)"/><g class="label" style="" transform="translate(-100, -36)"><rect/><foreignObject width="200" height="72"><div xmlns="http://www.w3.org/1999/xhtml" style="display: table; white-space: break-spaces; line-height: 1.5; max-width: 200px; text-align: center; width: 200px;"><span class="nodeLabel"><p>8 · Decision Gate<br />Evaluate success criteria [H]</p></span></div></foreignObject></g></g><g class="node default" id="my-svg-flowchart-DONE-33" data-look="classic" transform="translate(839.140625, 2407.828125)"><g class="basic label-container outer-path"><path d="M-35.3359375 -19.5 C-7.837773061321123 -19.5, 19.660391377357755 -19.5, 35.3359375 -19.5 C35.3359375 -19.5, 35.3359375 -19.5, 35.3359375 -19.5 C35.60686008211137 -19.491312040110504, 35.877782664222735 -19.482624080221008, 36.5853067896239 -19.45993515863156 C36.915961380100164 -19.42803730795864, 37.24661597057643 -19.39613945728572, 37.829542152847864 -19.3399052695533 C38.23448009748776 -19.274438043004583, 38.63941804212765 -19.208970816455867, 39.06353075967676 -19.140403561325776 C39.316140610759845 -19.082747011249396, 39.568750461842924 -19.02509046117301, 40.28220188623539 -18.862249829261074 C40.53255873165112 -18.787945231691584, 40.78291557706685 -18.713640634122097, 41.480547751460605 -18.50658706670804 C41.717977204163695 -18.419210833339502, 41.955406656866785 -18.33183459997096, 42.6536440951478 -18.074876768247425 C43.02930981652441 -17.908580697121685, 43.40497553790102 -17.742284625995946, 43.79667041279238 -17.568892924097174 C44.04656745265993 -17.43852179846497, 44.29646449252748 -17.30815067283276, 44.90492976407678 -16.990714730406097 C45.28694325249189 -16.759135908768414, 45.66895674090699 -16.527557087130734, 45.9738680736057 -16.342718045390892 C46.31936709290658 -16.10171288593809, 46.664866112207456 -15.860707726485286, 46.99909284457871 -15.627565626425154 C47.25227922539783 -15.42565622529446, 47.50546560621695 -15.223746824163765, 47.976391208501866 -14.848196188198123 C48.24086407134178 -14.608008931735407, 48.505336934181706 -14.36782167527269, 48.90174723676799 -14.007812326905688 C49.10068172164028 -13.80239613845009, 49.29961620651257 -13.596979949994495, 49.77135844296865 -13.10986736009568 C49.98797794469692 -12.855413767366827, 50.20459744642519 -12.600960174637972, 50.58165140812658 -12.158051136245305 C50.74984107882253 -11.932692299906954, 50.918030749518465 -11.707333463568602, 51.329296464640635 -11.156274872382312 C51.50286970721869 -10.889619760840642, 51.676442949796744 -10.62296464929897, 52.01122137860425 -10.108655082055241 C52.158466202601815 -9.847206986892335, 52.305711026599376 -9.58575889172943, 52.624623974273504 -9.019496659696287 C52.74356275703073 -8.772517732418631, 52.862501539787964 -8.525538805140975, 53.16698364880834 -7.893275190886684 C53.30754685106238 -7.546081363714572, 53.44811005331642 -7.19888753654246, 53.636071729970325 -6.734618561215508 C53.728121416513225 -6.457379571474139, 53.820171103056126 -6.18014058173277, 54.02996063421488 -5.548287939305138 C54.11585189415093 -5.220747339661454, 54.20174315408698 -4.893206740017769, 54.34703178754556 -4.339158212148133 C54.42344228639666 -3.946806449912407, 54.499852785247754 -3.5544546876766807, 54.585982276581774 -3.1121979531509023 C54.644829166090766 -2.6557930987519005, 54.70367605559976 -2.1993882443528987, 54.74583020250937 -1.872449005199798 C54.77204504086293 -1.464131737606456, 54.79825987921649 -1.055814470013114, 54.82591871591342 -0.6250057626472757 C54.82591871591342 -0.1987468563928939, 54.82591871591342 0.22751204986148788, 54.82591871591342 0.625005762647271 C54.807667507345926 0.9092830681963394, 54.789416298778434 1.1935603737454077, 54.74583020250937 1.8724490051997846 C54.69508714686993 2.2660021243895137, 54.6443440912305 2.6595552435792427, 54.585982276581774 3.1121979531508885 C54.50468017717377 3.529667050406213, 54.42337807776576 3.9471361476615368, 54.34703178754556 4.339158212148129 C54.23392809152902 4.770471624511131, 54.120824395512486 5.201785036874134, 54.02996063421489 5.548287939305125 C53.93997847826526 5.819299856315801, 53.84999632231564 6.090311773326477, 53.636071729970325 6.734618561215495 C53.48689607378214 7.103085316115422, 53.33772041759396 7.471552071015348, 53.16698364880834 7.893275190886679 C53.04984718352891 8.136511567358276, 52.932710718249474 8.379747943829873, 52.624623974273504 9.019496659696284 C52.428642621597106 9.367481396637125, 52.232661268920715 9.715466133577968, 52.01122137860425 10.108655082055236 C51.804128736133926 10.426804993050586, 51.59703609366361 10.744954904045938, 51.32929646464064 11.156274872382301 C51.11880254806508 11.438317544203267, 50.908308631489504 11.72036021602423, 50.58165140812658 12.158051136245302 C50.353722152745135 12.425789809158394, 50.12579289736369 12.693528482071487, 49.77135844296866 13.10986736009567 C49.47042845960309 13.420602274731742, 49.169498476237514 13.731337189367812, 48.90174723676799 14.007812326905684 C48.64762333019265 14.238600935107288, 48.393499423617314 14.46938954330889, 47.97639120850189 14.848196188198111 C47.6628252114177 15.09825672653113, 47.34925921433351 15.348317264864148, 46.99909284457871 15.627565626425152 C46.6577282261732 15.86568680678868, 46.31636360776768 16.10380798715221, 45.97386807360571 16.34271804539089 C45.661218869970725 16.532247829965076, 45.34856966633574 16.721777614539263, 44.90492976407678 16.990714730406093 C44.4818729969841 17.211423174817554, 44.05881622989142 17.432131619229015, 43.79667041279239 17.56889292409717 C43.54037409167596 17.682347702695175, 43.28407777055953 17.79580248129318, 42.653644095147804 18.07487676824742 C42.357607634805944 18.183820922184267, 42.06157117446408 18.292765076121114, 41.48054775146062 18.506587066708033 C41.15822158056295 18.602251782305864, 40.835895409665284 18.697916497903694, 40.28220188623541 18.86224982926107 C39.80746770920269 18.970604807238768, 39.332733532169975 19.078959785216462, 39.063530759676766 19.140403561325773 C38.711909081641465 19.19725102736368, 38.36028740360616 19.254098493401592, 37.82954215284788 19.3399052695533 C37.562092285106225 19.36570583663881, 37.294642417364564 19.39150640372432, 36.5853067896239 19.45993515863156 C36.28045240440594 19.469711245402436, 35.975598019187984 19.47948733217331, 35.33593750000001 19.5 C35.33593750000001 19.5, 35.3359375 19.5, 35.3359375 19.5 C7.198063120587442 19.5, -20.939811258825117 19.5, -35.33593749999999 19.5 C-35.67110412198205 19.48925185879529, -36.0062707439641 19.478503717590577, -36.58530678962389 19.45993515863156 C-36.93945390719879 19.425771012123334, -37.29360102477368 19.391606865615106, -37.82954215284787 19.3399052695533 C-38.233016409145286 19.27467468078472, -38.6364906654427 19.209444092016145, -39.06353075967676 19.140403561325773 C-39.42417640100234 19.05808854712596, -39.784822042327924 18.975773532926144, -40.282201886235384 18.862249829261074 C-40.58410895174539 18.77264539696023, -40.8860160172554 18.683040964659387, -41.48054775146059 18.506587066708043 C-41.78455716514962 18.394708792238266, -42.08856657883866 18.282830517768488, -42.6536440951478 18.074876768247425 C-42.96413571760396 17.937431337392816, -43.274627340060114 17.799985906538208, -43.79667041279238 17.568892924097174 C-44.188680037752334 17.364381753849717, -44.58068966271228 17.15987058360226, -44.90492976407678 16.990714730406097 C-45.29959150304945 16.751468464951053, -45.69425324202211 16.51222219949601, -45.973868073605686 16.3427180453909 C-46.27709685296991 16.13119877546871, -46.58032563233414 15.919679505546524, -46.99909284457871 15.627565626425156 C-47.24302201407356 15.43303860498083, -47.4869511835684 15.238511583536503, -47.976391208501866 14.848196188198125 C-48.18298050986948 14.660577250749439, -48.3895698112371 14.472958313300753, -48.901747236767974 14.007812326905697 C-49.09637843741416 13.806839632719761, -49.291009638060345 13.605866938533824, -49.771358442968655 13.109867360095677 C-49.980827574672475 12.863812998865122, -50.190296706376294 12.617758637634564, -50.581651408126575 12.158051136245307 C-50.86364907538544 11.780199952634428, -51.145646742644296 11.402348769023547, -51.329296464640635 11.156274872382316 C-51.54612168519335 10.823173107889257, -51.76294690574607 10.490071343396199, -52.01122137860425 10.108655082055249 C-52.146609297272065 9.868260122947165, -52.28199721593988 9.627865163839083, -52.624623974273504 9.019496659696289 C-52.83560268763975 8.581394847169976, -53.046581401005994 8.143293034643664, -53.16698364880834 7.893275190886686 C-53.26158485386608 7.659608385404185, -53.356186058923825 7.425941579921684, -53.636071729970325 6.73461856121551 C-53.77345197981325 6.320851137258894, -53.91083222965618 5.9070837133022795, -54.02996063421488 5.5482879393051325 C-54.11310476132076 5.231223347757761, -54.19624888842665 4.914158756210389, -54.34703178754556 4.339158212148136 C-54.41520617716778 3.9890971301003892, -54.48338056679 3.6390360480526427, -54.585982276581774 3.112197953150904 C-54.622489268113476 2.82905693595189, -54.658996259645185 2.5459159187528755, -54.74583020250937 1.872449005199809 C-54.76254890899282 1.6120416566230504, -54.77926761547627 1.3516343080462918, -54.82591871591342 0.6250057626472781 C-54.82591871591342 0.18094244383560143, -54.82591871591342 -0.2631208749760753, -54.82591871591342 -0.6250057626472687 C-54.800842770228904 -1.015583857622545, -54.7757668245444 -1.4061619525978215, -54.74583020250937 -1.8724490051997822 C-54.69164562375749 -2.2926938980440417, -54.63746104500561 -2.712938790888301, -54.585982276581774 -3.112197953150895 C-54.49510056732676 -3.578856322319356, -54.404218858071744 -4.045514691487817, -54.34703178754556 -4.339158212148126 C-54.226535463238726 -4.798662920167388, -54.1060391389319 -5.2581676281866505, -54.02996063421489 -5.548287939305123 C-53.92027061745628 -5.878656793051261, -53.810580600697676 -6.2090256467974, -53.63607172997033 -6.734618561215485 C-53.44884282962526 -7.197077564892346, -53.26161392928019 -7.659536568569207, -53.16698364880834 -7.893275190886676 C-52.99571275277277 -8.24892287111466, -52.824441856737195 -8.604570551342645, -52.624623974273504 -9.019496659696282 C-52.438472258691505 -9.350027880617338, -52.252320543109505 -9.680559101538394, -52.01122137860425 -10.108655082055243 C-51.86250529774488 -10.337122918114485, -51.71378921688552 -10.565590754173726, -51.32929646464064 -11.156274872382308 C-51.07952780781078 -11.490942118141591, -50.82975915098091 -11.825609363900872, -50.58165140812659 -12.158051136245302 C-50.412176518370586 -12.357125985147112, -50.24270162861459 -12.556200834048921, -49.77135844296866 -13.10986736009567 C-49.51848923508386 -13.370975578184794, -49.26562002719906 -13.63208379627392, -48.901747236767996 -14.007812326905677 C-48.63639627680042 -14.248797047946558, -48.37104531683284 -14.48978176898744, -47.97639120850189 -14.848196188198107 C-47.649496120386004 -15.108886321926894, -47.32260103227012 -15.369576455655682, -46.99909284457872 -15.627565626425149 C-46.692969018018765 -15.841104355946506, -46.38684519145881 -16.054643085467863, -45.973868073605715 -16.342718045390885 C-45.69443601247548 -16.512111402973098, -45.41500395134524 -16.68150476055531, -44.90492976407679 -16.99071473040609 C-44.679465878896316 -17.108339094888233, -44.45400199371585 -17.225963459370373, -43.79667041279239 -17.56889292409717 C-43.375090813660336 -17.755513706918453, -42.95351121452828 -17.942134489739733, -42.653644095147804 -18.07487676824742 C-42.36308426145513 -18.181805472951986, -42.072524427762445 -18.28873417765655, -41.48054775146062 -18.506587066708033 C-41.02386574750776 -18.642127888308483, -40.56718374355491 -18.777668709908937, -40.28220188623541 -18.862249829261067 C-39.79834521281582 -18.972686957509215, -39.31448853939622 -19.083124085757365, -39.063530759676766 -19.140403561325773 C-38.63713258301868 -19.209340311760606, -38.2107344063606 -19.27827706219544, -37.82954215284788 -19.3399052695533 C-37.35438975745523 -19.385742649682467, -36.87923736206258 -19.43158002981163, -36.5853067896239 -19.45993515863156 C-36.14380606785139 -19.47409322744978, -35.70230534607889 -19.488251296268004, -35.33593750000001 -19.5 C-35.33593750000001 -19.5, -35.3359375 -19.5, -35.3359375 -19.5" stroke="none" stroke-width="0" fill="#ECECFF" style=""/><path d="M-35.3359375 -19.5 C-8.16704275188901 -19.5, 19.00185199622198 -19.5, 35.3359375 -19.5 M-35.3359375 -19.5 C-19.861316408867232 -19.5, -4.386695317734464 -19.5, 35.3359375 -19.5 M35.3359375 -19.5 C35.3359375 -19.5, 35.3359375 -19.5, 35.3359375 -19.5 M35.3359375 -19.5 C35.3359375 -19.5, 35.3359375 -19.5, 35.3359375 -19.5 M35.3359375 -19.5 C35.70428290433512 -19.48818787982381, 36.07262830867025 -19.476375759647617, 36.5853067896239 -19.45993515863156 M35.3359375 -19.5 C35.71035028117086 -19.48799331085812, 36.084763062341715 -19.47598662171624, 36.5853067896239 -19.45993515863156 M36.5853067896239 -19.45993515863156 C36.93403503668885 -19.42629376404428, 37.282763283753795 -19.392652369457004, 37.829542152847864 -19.3399052695533 M36.5853067896239 -19.45993515863156 C37.05298991528548 -19.414818329970238, 37.52067304094706 -19.369701501308914, 37.829542152847864 -19.3399052695533 M37.829542152847864 -19.3399052695533 C38.169025663078806 -19.285020208353103, 38.50850917330975 -19.230135147152907, 39.06353075967676 -19.140403561325776 M37.829542152847864 -19.3399052695533 C38.10118388076518 -19.29598834159669, 38.3728256086825 -19.25207141364008, 39.06353075967676 -19.140403561325776 M39.06353075967676 -19.140403561325776 C39.42876614342226 -19.057040968369485, 39.79400152716775 -18.97367837541319, 40.28220188623539 -18.862249829261074 M39.06353075967676 -19.140403561325776 C39.42135588518865 -19.05873231145485, 39.77918101070054 -18.977061061583925, 40.28220188623539 -18.862249829261074 M40.28220188623539 -18.862249829261074 C40.59780690114103 -18.768579917481613, 40.913411916046655 -18.67491000570215, 41.480547751460605 -18.50658706670804 M40.28220188623539 -18.862249829261074 C40.53171355319493 -18.78819607622095, 40.78122522015448 -18.714142323180823, 41.480547751460605 -18.50658706670804 M41.480547751460605 -18.50658706670804 C41.91155738973222 -18.347971535614665, 42.34256702800383 -18.18935600452129, 42.6536440951478 -18.074876768247425 M41.480547751460605 -18.50658706670804 C41.806471639356644 -18.386644063154904, 42.13239552725268 -18.26670105960177, 42.6536440951478 -18.074876768247425 M42.6536440951478 -18.074876768247425 C42.90469138286927 -17.963745581026323, 43.15573867059074 -17.852614393805226, 43.79667041279238 -17.568892924097174 M42.6536440951478 -18.074876768247425 C43.065576116122756 -17.89252668209105, 43.47750813709772 -17.710176595934676, 43.79667041279238 -17.568892924097174 M43.79667041279238 -17.568892924097174 C44.08288585082237 -17.419574513406666, 44.369101288852356 -17.27025610271616, 44.90492976407678 -16.990714730406097 M43.79667041279238 -17.568892924097174 C44.117098571952766 -17.40172575870723, 44.43752673111316 -17.23455859331729, 44.90492976407678 -16.990714730406097 M44.90492976407678 -16.990714730406097 C45.17751274815879 -16.825473323580162, 45.450095732240804 -16.660231916754228, 45.9738680736057 -16.342718045390892 M44.90492976407678 -16.990714730406097 C45.12376284779811 -16.858056829048284, 45.34259593151943 -16.725398927690474, 45.9738680736057 -16.342718045390892 M45.9738680736057 -16.342718045390892 C46.283371121469735 -16.126822117371944, 46.59287416933377 -15.910926189352995, 46.99909284457871 -15.627565626425154 M45.9738680736057 -16.342718045390892 C46.2674978662388 -16.137894613078902, 46.5611276588719 -15.933071180766909, 46.99909284457871 -15.627565626425154 M46.99909284457871 -15.627565626425154 C47.38976883910051 -15.31601191711885, 47.78044483362231 -15.004458207812547, 47.976391208501866 -14.848196188198123 M46.99909284457871 -15.627565626425154 C47.346460871152516 -15.35054886908395, 47.69382889772631 -15.073532111742747, 47.976391208501866 -14.848196188198123 M47.976391208501866 -14.848196188198123 C48.1927011598122 -14.651749213665763, 48.409011111122545 -14.4553022391334, 48.90174723676799 -14.007812326905688 M47.976391208501866 -14.848196188198123 C48.184633310788925 -14.659076220685115, 48.39287541307599 -14.469956253172109, 48.90174723676799 -14.007812326905688 M48.90174723676799 -14.007812326905688 C49.1528028737097 -13.74857676971224, 49.40385851065142 -13.489341212518793, 49.77135844296865 -13.10986736009568 M48.90174723676799 -14.007812326905688 C49.091550567318684 -13.811824804968852, 49.28135389786937 -13.615837283032016, 49.77135844296865 -13.10986736009568 M49.77135844296865 -13.10986736009568 C49.94930978716342 -12.900835585486163, 50.1272611313582 -12.691803810876648, 50.58165140812658 -12.158051136245305 M49.77135844296865 -13.10986736009568 C50.03010929697219 -12.805923883642436, 50.28886015097573 -12.501980407189189, 50.58165140812658 -12.158051136245305 M50.58165140812658 -12.158051136245305 C50.86240080836997 -11.781872516715689, 51.14315020861336 -11.40569389718607, 51.329296464640635 -11.156274872382312 M50.58165140812658 -12.158051136245305 C50.79684041563187 -11.869717470310098, 51.01202942313716 -11.581383804374891, 51.329296464640635 -11.156274872382312 M51.329296464640635 -11.156274872382312 C51.52665609143689 -10.853077487142977, 51.724015718233154 -10.549880101903645, 52.01122137860425 -10.108655082055241 M51.329296464640635 -11.156274872382312 C51.48814066601888 -10.912247523424906, 51.64698486739712 -10.668220174467502, 52.01122137860425 -10.108655082055241 M52.01122137860425 -10.108655082055241 C52.207873705991645 -9.759478961571457, 52.40452603337904 -9.410302841087674, 52.624623974273504 -9.019496659696287 M52.01122137860425 -10.108655082055241 C52.17012431136955 -9.826506834263697, 52.32902724413485 -9.544358586472152, 52.624623974273504 -9.019496659696287 M52.624623974273504 -9.019496659696287 C52.838990080161985 -8.574360854118968, 53.05335618605046 -8.129225048541649, 53.16698364880834 -7.893275190886684 M52.624623974273504 -9.019496659696287 C52.78535195901076 -8.685741560361416, 52.946079943748025 -8.351986461026543, 53.16698364880834 -7.893275190886684 M53.16698364880834 -7.893275190886684 C53.30918797385096 -7.542027758697833, 53.45139229889357 -7.190780326508981, 53.636071729970325 -6.734618561215508 M53.16698364880834 -7.893275190886684 C53.2672755083893 -7.645552358710519, 53.36756736797026 -7.397829526534355, 53.636071729970325 -6.734618561215508 M53.636071729970325 -6.734618561215508 C53.75303376251637 -6.382347554555988, 53.86999579506241 -6.030076547896469, 54.02996063421488 -5.548287939305138 M53.636071729970325 -6.734618561215508 C53.77549192715872 -6.314707140875818, 53.91491212434712 -5.894795720536128, 54.02996063421488 -5.548287939305138 M54.02996063421488 -5.548287939305138 C54.119230164259704 -5.207864531585157, 54.208499694304535 -4.867441123865175, 54.34703178754556 -4.339158212148133 M54.02996063421488 -5.548287939305138 C54.136403980886385 -5.142373325608426, 54.24284732755789 -4.736458711911713, 54.34703178754556 -4.339158212148133 M54.34703178754556 -4.339158212148133 C54.40751293229472 -4.028600316555666, 54.467994077043876 -3.718042420963199, 54.585982276581774 -3.1121979531509023 M54.34703178754556 -4.339158212148133 C54.431958239627576 -3.9030788299189836, 54.51688469170959 -3.4669994476898336, 54.585982276581774 -3.1121979531509023 M54.585982276581774 -3.1121979531509023 C54.63606061783783 -2.723800227455989, 54.686138959093874 -2.3354025017610756, 54.74583020250937 -1.872449005199798 M54.585982276581774 -3.1121979531509023 C54.641416581954445 -2.682260427422242, 54.696850887327116 -2.2523229016935815, 54.74583020250937 -1.872449005199798 M54.74583020250937 -1.872449005199798 C54.775137571504175 -1.415963076623261, 54.804444940498975 -0.9594771480467239, 54.82591871591342 -0.6250057626472757 M54.74583020250937 -1.872449005199798 C54.76784488227488 -1.5295525979222784, 54.78985956204039 -1.1866561906447588, 54.82591871591342 -0.6250057626472757 M54.82591871591342 -0.6250057626472757 C54.82591871591342 -0.32892671113020927, 54.82591871591342 -0.03284765961314284, 54.82591871591342 0.625005762647271 M54.82591871591342 -0.6250057626472757 C54.82591871591342 -0.23547773712582692, 54.82591871591342 0.15405028839562185, 54.82591871591342 0.625005762647271 M54.82591871591342 0.625005762647271 C54.79935608971048 1.0387401067240296, 54.77279346350753 1.4524744508007883, 54.74583020250937 1.8724490051997846 M54.82591871591342 0.625005762647271 C54.80219378699705 0.9945406809375889, 54.778468858080686 1.3640755992279066, 54.74583020250937 1.8724490051997846 M54.74583020250937 1.8724490051997846 C54.6876106583178 2.3239882932001725, 54.62939111412624 2.77552758120056, 54.585982276581774 3.1121979531508885 M54.74583020250937 1.8724490051997846 C54.70533300032238 2.1865373082849473, 54.66483579813539 2.50062561137011, 54.585982276581774 3.1121979531508885 M54.585982276581774 3.1121979531508885 C54.505969451192335 3.5230469008090193, 54.425956625802904 3.93389584846715, 54.34703178754556 4.339158212148129 M54.585982276581774 3.1121979531508885 C54.51807198382473 3.4609029536128495, 54.45016169106769 3.809607954074811, 54.34703178754556 4.339158212148129 M54.34703178754556 4.339158212148129 C54.275786381342506 4.6108478239547415, 54.20454097513946 4.882537435761355, 54.02996063421489 5.548287939305125 M54.34703178754556 4.339158212148129 C54.28012510172729 4.594302402714242, 54.213218415909026 4.849446593280355, 54.02996063421489 5.548287939305125 M54.02996063421489 5.548287939305125 C53.928967308505996 5.8524637452390555, 53.82797398279711 6.156639551172986, 53.636071729970325 6.734618561215495 M54.02996063421489 5.548287939305125 C53.92999156329459 5.849378853008648, 53.8300224923743 6.150469766712171, 53.636071729970325 6.734618561215495 M53.636071729970325 6.734618561215495 C53.51130785557288 7.0427877431226005, 53.386543981175436 7.350956925029707, 53.16698364880834 7.893275190886679 M53.636071729970325 6.734618561215495 C53.485637943786585 7.106192921528732, 53.335204157602845 7.4777672818419685, 53.16698364880834 7.893275190886679 M53.16698364880834 7.893275190886679 C53.01481709507436 8.209252295557953, 52.86265054134039 8.525229400229225, 52.624623974273504 9.019496659696284 M53.16698364880834 7.893275190886679 C53.00217822221714 8.235497185474543, 52.83737279562594 8.577719180062408, 52.624623974273504 9.019496659696284 M52.624623974273504 9.019496659696284 C52.39688251170264 9.42387468781462, 52.169141049131774 9.828252715932953, 52.01122137860425 10.108655082055236 M52.624623974273504 9.019496659696284 C52.438441103619624 9.350083199602256, 52.252258232965744 9.680669739508229, 52.01122137860425 10.108655082055236 M52.01122137860425 10.108655082055236 C51.835769919181374 10.378195639042392, 51.6603184597585 10.647736196029546, 51.32929646464064 11.156274872382301 M52.01122137860425 10.108655082055236 C51.87041686769189 10.32496862212188, 51.72961235677953 10.541282162188523, 51.32929646464064 11.156274872382301 M51.32929646464064 11.156274872382301 C51.06330735132486 11.512676052118728, 50.797318238009076 11.869077231855155, 50.58165140812658 12.158051136245302 M51.32929646464064 11.156274872382301 C51.1171436999103 11.440540249606485, 50.90499093517996 11.724805626830669, 50.58165140812658 12.158051136245302 M50.58165140812658 12.158051136245302 C50.34770307779474 12.432860157090197, 50.11375474746289 12.707669177935092, 49.77135844296866 13.10986736009567 M50.58165140812658 12.158051136245302 C50.32842148006095 12.45550941894229, 50.07519155199533 12.752967701639276, 49.77135844296866 13.10986736009567 M49.77135844296866 13.10986736009567 C49.581379373493206 13.306036346900758, 49.39140030401775 13.502205333705845, 48.90174723676799 14.007812326905684 M49.77135844296866 13.10986736009567 C49.56301533882935 13.324998720406473, 49.35467223469004 13.540130080717276, 48.90174723676799 14.007812326905684 M48.90174723676799 14.007812326905684 C48.636035620496855 14.249124586459011, 48.37032400422572 14.490436846012338, 47.97639120850189 14.848196188198111 M48.90174723676799 14.007812326905684 C48.62458073311913 14.259527612095752, 48.34741422947027 14.51124289728582, 47.97639120850189 14.848196188198111 M47.97639120850189 14.848196188198111 C47.73944778228752 15.03715226527469, 47.50250435607315 15.226108342351269, 46.99909284457871 15.627565626425152 M47.97639120850189 14.848196188198111 C47.75995344506084 15.02079954489157, 47.543515681619795 15.19340290158503, 46.99909284457871 15.627565626425152 M46.99909284457871 15.627565626425152 C46.6614466210457 15.863093015492344, 46.323800397512684 16.098620404559536, 45.97386807360571 16.34271804539089 M46.99909284457871 15.627565626425152 C46.63759156447262 15.879733270288966, 46.27609028436653 16.13190091415278, 45.97386807360571 16.34271804539089 M45.97386807360571 16.34271804539089 C45.61334576123869 16.56126878981205, 45.25282344887167 16.779819534233212, 44.90492976407678 16.990714730406093 M45.97386807360571 16.34271804539089 C45.61386272499232 16.56095540334658, 45.25385737637894 16.779192761302273, 44.90492976407678 16.990714730406093 M44.90492976407678 16.990714730406093 C44.49049421395504 17.20692549144597, 44.076058663833294 17.423136252485843, 43.79667041279239 17.56889292409717 M44.90492976407678 16.990714730406093 C44.53743853997007 17.182434666633206, 44.169947315863354 17.374154602860315, 43.79667041279239 17.56889292409717 M43.79667041279239 17.56889292409717 C43.48664431989907 17.706132278823752, 43.176618227005754 17.843371633550333, 42.653644095147804 18.07487676824742 M43.79667041279239 17.56889292409717 C43.50055659208525 17.69997372861982, 43.20444277137811 17.83105453314247, 42.653644095147804 18.07487676824742 M42.653644095147804 18.07487676824742 C42.33487156096304 18.19218800752842, 42.01609902677827 18.30949924680942, 41.48054775146062 18.506587066708033 M42.653644095147804 18.07487676824742 C42.30304499031228 18.20390047972949, 41.95244588547676 18.33292419121156, 41.48054775146062 18.506587066708033 M41.48054775146062 18.506587066708033 C41.229776757208136 18.58101458147836, 40.979005762955644 18.65544209624869, 40.28220188623541 18.86224982926107 M41.48054775146062 18.506587066708033 C41.217953801029395 18.584523572812248, 40.955359850598164 18.662460078916464, 40.28220188623541 18.86224982926107 M40.28220188623541 18.86224982926107 C39.86939022050224 18.956471398116793, 39.45657855476907 19.05069296697252, 39.063530759676766 19.140403561325773 M40.28220188623541 18.86224982926107 C39.85342366733823 18.960115659684984, 39.424645448441034 19.057981490108897, 39.063530759676766 19.140403561325773 M39.063530759676766 19.140403561325773 C38.79716766578155 19.18346708067011, 38.530804571886335 19.226530600014442, 37.82954215284788 19.3399052695533 M39.063530759676766 19.140403561325773 C38.57773495344414 19.21894325987472, 38.09193914721152 19.297482958423668, 37.82954215284788 19.3399052695533 M37.82954215284788 19.3399052695533 C37.34260474636738 19.38687953552856, 36.855667339886885 19.433853801503822, 36.5853067896239 19.45993515863156 M37.82954215284788 19.3399052695533 C37.35739015235785 19.38545320519471, 36.885238151867824 19.431001140836127, 36.5853067896239 19.45993515863156 M36.5853067896239 19.45993515863156 C36.10418108710674 19.475363923456914, 35.62305538458957 19.490792688282273, 35.33593750000001 19.5 M36.5853067896239 19.45993515863156 C36.29747073277727 19.469165500735734, 36.009634675930634 19.47839584283991, 35.33593750000001 19.5 M35.33593750000001 19.5 C35.33593750000001 19.5, 35.33593750000001 19.5, 35.3359375 19.5 M35.33593750000001 19.5 C35.33593750000001 19.5, 35.3359375 19.5, 35.3359375 19.5 M35.3359375 19.5 C13.18707126014451 19.5, -8.96179497971098 19.5, -35.33593749999999 19.5 M35.3359375 19.5 C16.358186846827568 19.5, -2.619563806344864 19.5, -35.33593749999999 19.5 M-35.33593749999999 19.5 C-35.77682974624308 19.485861443807682, -36.21772199248616 19.471722887615364, -36.58530678962389 19.45993515863156 M-35.33593749999999 19.5 C-35.681112725898075 19.48893090234827, -36.02628795179615 19.477861804696534, -36.58530678962389 19.45993515863156 M-36.58530678962389 19.45993515863156 C-36.847805241059746 19.434612248722118, -37.1103036924956 19.409289338812677, -37.82954215284787 19.3399052695533 M-36.58530678962389 19.45993515863156 C-36.97683005004137 19.422165380574697, -37.36835331045885 19.384395602517834, -37.82954215284787 19.3399052695533 M-37.82954215284787 19.3399052695533 C-38.167558328806415 19.285257435578917, -38.505574504764965 19.23060960160453, -39.06353075967676 19.140403561325773 M-37.82954215284787 19.3399052695533 C-38.22880346041992 19.275355797662733, -38.62806476799196 19.210806325772168, -39.06353075967676 19.140403561325773 M-39.06353075967676 19.140403561325773 C-39.37596409709895 19.06909269087722, -39.68839743452114 18.99778182042867, -40.282201886235384 18.862249829261074 M-39.06353075967676 19.140403561325773 C-39.52152072337816 19.035870340774746, -39.97951068707956 18.93133712022372, -40.282201886235384 18.862249829261074 M-40.282201886235384 18.862249829261074 C-40.732748682677794 18.728529905045363, -41.183295479120204 18.594809980829652, -41.48054775146059 18.506587066708043 M-40.282201886235384 18.862249829261074 C-40.66233403804787 18.74942860195751, -41.042466189860356 18.636607374653952, -41.48054775146059 18.506587066708043 M-41.48054775146059 18.506587066708043 C-41.80363650067021 18.387687420399246, -42.12672524987983 18.26878777409045, -42.6536440951478 18.074876768247425 M-41.48054775146059 18.506587066708043 C-41.71963215041211 18.41860179782193, -41.958716549363636 18.33061652893581, -42.6536440951478 18.074876768247425 M-42.6536440951478 18.074876768247425 C-42.8859288517423 17.972051196985525, -43.118213608336795 17.869225625723626, -43.79667041279238 17.568892924097174 M-42.6536440951478 18.074876768247425 C-42.993832780090806 17.924285328761947, -43.334021465033814 17.77369388927647, -43.79667041279238 17.568892924097174 M-43.79667041279238 17.568892924097174 C-44.02582163711649 17.449344877145652, -44.2549728614406 17.329796830194127, -44.90492976407678 16.990714730406097 M-43.79667041279238 17.568892924097174 C-44.02982671773998 17.447255429149752, -44.262983022687585 17.325617934202327, -44.90492976407678 16.990714730406097 M-44.90492976407678 16.990714730406097 C-45.235617853742184 16.790249667112008, -45.56630594340759 16.589784603817915, -45.973868073605686 16.3427180453909 M-44.90492976407678 16.990714730406097 C-45.27735116397975 16.764950689193842, -45.64977256388272 16.539186647981587, -45.973868073605686 16.3427180453909 M-45.973868073605686 16.3427180453909 C-46.31595769760931 16.10409113250712, -46.65804732161294 15.865464219623338, -46.99909284457871 15.627565626425156 M-45.973868073605686 16.3427180453909 C-46.18231284842635 16.197315993904876, -46.390757623247005 16.051913942418857, -46.99909284457871 15.627565626425156 M-46.99909284457871 15.627565626425156 C-47.325860569906304 15.366977061130765, -47.652628295233896 15.106388495836374, -47.976391208501866 14.848196188198125 M-46.99909284457871 15.627565626425156 C-47.19786196117061 15.469052545411452, -47.39663107776251 15.310539464397749, -47.976391208501866 14.848196188198125 M-47.976391208501866 14.848196188198125 C-48.334339705339794 14.523116834168164, -48.69228820217772 14.1980374801382, -48.901747236767974 14.007812326905697 M-47.976391208501866 14.848196188198125 C-48.32052101325154 14.535666604700157, -48.66465081800121 14.22313702120219, -48.901747236767974 14.007812326905697 M-48.901747236767974 14.007812326905697 C-49.23555840329353 13.663124891061603, -49.56936956981908 13.31843745521751, -49.771358442968655 13.109867360095677 M-48.901747236767974 14.007812326905697 C-49.083738822332755 13.819891073023006, -49.265730407897536 13.631969819140318, -49.771358442968655 13.109867360095677 M-49.771358442968655 13.109867360095677 C-50.070909835913746 12.757997248985253, -50.37046122885883 12.40612713787483, -50.581651408126575 12.158051136245307 M-49.771358442968655 13.109867360095677 C-50.05552591228626 12.776068081048155, -50.33969338160385 12.442268802000633, -50.581651408126575 12.158051136245307 M-50.581651408126575 12.158051136245307 C-50.85176029365709 11.796129837060123, -51.12186917918759 11.434208537874937, -51.329296464640635 11.156274872382316 M-50.581651408126575 12.158051136245307 C-50.85622054564822 11.790153505729315, -51.130789683169866 11.42225587521332, -51.329296464640635 11.156274872382316 M-51.329296464640635 11.156274872382316 C-51.597068179281635 10.744905611920467, -51.86483989392263 10.33353635145862, -52.01122137860425 10.108655082055249 M-51.329296464640635 11.156274872382316 C-51.58766787869777 10.759346997951422, -51.84603929275491 10.36241912352053, -52.01122137860425 10.108655082055249 M-52.01122137860425 10.108655082055249 C-52.14064120069192 9.87885708276053, -52.270061022779586 9.649059083465811, -52.624623974273504 9.019496659696289 M-52.01122137860425 10.108655082055249 C-52.18508316972089 9.799945866512234, -52.35894496083753 9.491236650969217, -52.624623974273504 9.019496659696289 M-52.624623974273504 9.019496659696289 C-52.83052506548973 8.591938638208195, -53.036426156705964 8.164380616720099, -53.16698364880834 7.893275190886686 M-52.624623974273504 9.019496659696289 C-52.74698829316113 8.765404533349136, -52.86935261204875 8.511312407001983, -53.16698364880834 7.893275190886686 M-53.16698364880834 7.893275190886686 C-53.27424399075324 7.6283400725451465, -53.38150433269814 7.363404954203606, -53.636071729970325 6.73461856121551 M-53.16698364880834 7.893275190886686 C-53.32151892001643 7.5115700832664825, -53.47605419122453 7.129864975646278, -53.636071729970325 6.73461856121551 M-53.636071729970325 6.73461856121551 C-53.73672008316185 6.431481757539972, -53.83736843635337 6.128344953864433, -54.02996063421488 5.5482879393051325 M-53.636071729970325 6.73461856121551 C-53.78361117401624 6.290253262967296, -53.93115061806214 5.845887964719082, -54.02996063421488 5.5482879393051325 M-54.02996063421488 5.5482879393051325 C-54.135941673568375 5.144136303777239, -54.24192271292188 4.739984668249346, -54.34703178754556 4.339158212148136 M-54.02996063421488 5.5482879393051325 C-54.109985257635714 5.2431193673103085, -54.190009881056554 4.937950795315484, -54.34703178754556 4.339158212148136 M-54.34703178754556 4.339158212148136 C-54.40908755261748 4.02051497399443, -54.471143317689396 3.7018717358407254, -54.585982276581774 3.112197953150904 M-54.34703178754556 4.339158212148136 C-54.41487589236204 3.9907930727721537, -54.48271999717851 3.642427933396172, -54.585982276581774 3.112197953150904 M-54.585982276581774 3.112197953150904 C-54.63664999107511 2.7192291650125027, -54.687317705568454 2.3262603768741013, -54.74583020250937 1.872449005199809 M-54.585982276581774 3.112197953150904 C-54.647442597935786 2.635523837442398, -54.7089029192898 2.1588497217338927, -54.74583020250937 1.872449005199809 M-54.74583020250937 1.872449005199809 C-54.767138202757394 1.540559701828585, -54.78844620300542 1.208670398457361, -54.82591871591342 0.6250057626472781 M-54.74583020250937 1.872449005199809 C-54.77037758777572 1.4901036653836042, -54.79492497304207 1.1077583255673993, -54.82591871591342 0.6250057626472781 M-54.82591871591342 0.6250057626472781 C-54.82591871591342 0.2684423988554843, -54.82591871591342 -0.0881209649363095, -54.82591871591342 -0.6250057626472687 M-54.82591871591342 0.6250057626472781 C-54.82591871591342 0.3026675895513677, -54.82591871591342 -0.019670583544542763, -54.82591871591342 -0.6250057626472687 M-54.82591871591342 -0.6250057626472687 C-54.79697677670492 -1.075799827332344, -54.76803483749644 -1.5265938920174191, -54.74583020250937 -1.8724490051997822 M-54.82591871591342 -0.6250057626472687 C-54.79783821885928 -1.062382170434693, -54.76975772180514 -1.499758578222117, -54.74583020250937 -1.8724490051997822 M-54.74583020250937 -1.8724490051997822 C-54.70346714889858 -2.2010084834738626, -54.661104095287804 -2.5295679617479427, -54.585982276581774 -3.112197953150895 M-54.74583020250937 -1.8724490051997822 C-54.68525064185621 -2.342292114838341, -54.62467108120305 -2.8121352244769, -54.585982276581774 -3.112197953150895 M-54.585982276581774 -3.112197953150895 C-54.5248096305114 -3.4263065618789494, -54.463636984441024 -3.7404151706070037, -54.34703178754556 -4.339158212148126 M-54.585982276581774 -3.112197953150895 C-54.529902657251206 -3.400154945981639, -54.47382303792063 -3.6881119388123826, -54.34703178754556 -4.339158212148126 M-54.34703178754556 -4.339158212148126 C-54.25625323741807 -4.685336167456758, -54.165474687290576 -5.03151412276539, -54.02996063421489 -5.548287939305123 M-54.34703178754556 -4.339158212148126 C-54.22537191504616 -4.803100033710637, -54.10371204254675 -5.267041855273147, -54.02996063421489 -5.548287939305123 M-54.02996063421489 -5.548287939305123 C-53.885196304589684 -5.984295035072612, -53.74043197496447 -6.420302130840102, -53.63607172997033 -6.734618561215485 M-54.02996063421489 -5.548287939305123 C-53.90451270148375 -5.926117125277569, -53.77906476875261 -6.303946311250016, -53.63607172997033 -6.734618561215485 M-53.63607172997033 -6.734618561215485 C-53.460120799447196 -7.169220761387453, -53.28416986892406 -7.60382296155942, -53.16698364880834 -7.893275190886676 M-53.63607172997033 -6.734618561215485 C-53.46156345435868 -7.165657375864241, -53.28705517874703 -7.596696190512995, -53.16698364880834 -7.893275190886676 M-53.16698364880834 -7.893275190886676 C-53.012648492364036 -8.213755445486617, -52.85831333591973 -8.53423570008656, -52.624623974273504 -9.019496659696282 M-53.16698364880834 -7.893275190886676 C-52.97125754462084 -8.299704634099777, -52.77553144043333 -8.706134077312878, -52.624623974273504 -9.019496659696282 M-52.624623974273504 -9.019496659696282 C-52.461198248523104 -9.309675584415325, -52.2977725227727 -9.599854509134369, -52.01122137860425 -10.108655082055243 M-52.624623974273504 -9.019496659696282 C-52.47209536239808 -9.290326655277866, -52.31956675052266 -9.56115665085945, -52.01122137860425 -10.108655082055243 M-52.01122137860425 -10.108655082055243 C-51.76739312543458 -10.483240755977478, -51.52356487226491 -10.857826429899715, -51.32929646464064 -11.156274872382308 M-52.01122137860425 -10.108655082055243 C-51.866393469858075 -10.331149641628219, -51.7215655611119 -10.553644201201193, -51.32929646464064 -11.156274872382308 M-51.32929646464064 -11.156274872382308 C-51.12431200965908 -11.430935367589589, -50.91932755467751 -11.705595862796871, -50.58165140812659 -12.158051136245302 M-51.32929646464064 -11.156274872382308 C-51.059480364585795 -11.517803865703414, -50.78966426453095 -11.879332859024519, -50.58165140812659 -12.158051136245302 M-50.58165140812659 -12.158051136245302 C-50.29679344137739 -12.4926615128664, -50.01193547462818 -12.827271889487498, -49.77135844296866 -13.10986736009567 M-50.58165140812659 -12.158051136245302 C-50.41582360802754 -12.352841906110777, -50.24999580792849 -12.547632675976253, -49.77135844296866 -13.10986736009567 M-49.77135844296866 -13.10986736009567 C-49.429838918455964 -13.462514308429451, -49.088319393943266 -13.815161256763234, -48.901747236767996 -14.007812326905677 M-49.77135844296866 -13.10986736009567 C-49.59117276239338 -13.295923868809146, -49.4109870818181 -13.481980377522623, -48.901747236767996 -14.007812326905677 M-48.901747236767996 -14.007812326905677 C-48.57983235415065 -14.300166905897694, -48.257917471533304 -14.592521484889712, -47.97639120850189 -14.848196188198107 M-48.901747236767996 -14.007812326905677 C-48.68463109380406 -14.204991463367177, -48.46751495084012 -14.402170599828676, -47.97639120850189 -14.848196188198107 M-47.97639120850189 -14.848196188198107 C-47.727168125811545 -15.046944964538893, -47.47794504312121 -15.245693740879679, -46.99909284457872 -15.627565626425149 M-47.97639120850189 -14.848196188198107 C-47.610228286803604 -15.140201374247923, -47.244065365105314 -15.432206560297738, -46.99909284457872 -15.627565626425149 M-46.99909284457872 -15.627565626425149 C-46.716090819814646 -15.824975587940365, -46.43308879505057 -16.02238554945558, -45.973868073605715 -16.342718045390885 M-46.99909284457872 -15.627565626425149 C-46.727174947720904 -15.817243780137122, -46.455257050863096 -16.006921933849096, -45.973868073605715 -16.342718045390885 M-45.973868073605715 -16.342718045390885 C-45.73927038747285 -16.484932541373656, -45.50467270133999 -16.62714703735643, -44.90492976407679 -16.99071473040609 M-45.973868073605715 -16.342718045390885 C-45.75937136600069 -16.472747210063616, -45.54487465839568 -16.602776374736347, -44.90492976407679 -16.99071473040609 M-44.90492976407679 -16.99071473040609 C-44.58244707962487 -17.158953740324637, -44.25996439517295 -17.32719275024319, -43.79667041279239 -17.56889292409717 M-44.90492976407679 -16.99071473040609 C-44.658674207631016 -17.11918609646964, -44.412418651185234 -17.24765746253319, -43.79667041279239 -17.56889292409717 M-43.79667041279239 -17.56889292409717 C-43.51782169916545 -17.69233097786662, -43.23897298553852 -17.815769031636073, -42.653644095147804 -18.07487676824742 M-43.79667041279239 -17.56889292409717 C-43.37806013035807 -17.754199278498014, -42.95944984792376 -17.939505632898857, -42.653644095147804 -18.07487676824742 M-42.653644095147804 -18.07487676824742 C-42.33783966665473 -18.19109571719701, -42.022035238161656 -18.307314666146596, -41.48054775146062 -18.506587066708033 M-42.653644095147804 -18.07487676824742 C-42.19076889491254 -18.245219120705446, -41.72789369467726 -18.41556147316347, -41.48054775146062 -18.506587066708033 M-41.48054775146062 -18.506587066708033 C-41.15210207313586 -18.604068019988276, -40.82365639481109 -18.70154897326852, -40.28220188623541 -18.862249829261067 M-41.48054775146062 -18.506587066708033 C-41.02714493401626 -18.641154642965564, -40.5737421165719 -18.775722219223095, -40.28220188623541 -18.862249829261067 M-40.28220188623541 -18.862249829261067 C-39.873917225578005 -18.955438138749717, -39.4656325649206 -19.04862644823837, -39.063530759676766 -19.140403561325773 M-40.28220188623541 -18.862249829261067 C-39.853507147325516 -18.96009660592264, -39.42481240841562 -19.057943382584213, -39.063530759676766 -19.140403561325773 M-39.063530759676766 -19.140403561325773 C-38.73586665081621 -19.193377753373234, -38.40820254195565 -19.24635194542069, -37.82954215284788 -19.3399052695533 M-39.063530759676766 -19.140403561325773 C-38.676479002693824 -19.20297908776357, -38.289427245710876 -19.26555461420137, -37.82954215284788 -19.3399052695533 M-37.82954215284788 -19.3399052695533 C-37.35878237450122 -19.385318899198932, -36.88802259615456 -19.43073252884457, -36.5853067896239 -19.45993515863156 M-37.82954215284788 -19.3399052695533 C-37.49591208503687 -19.372090160946165, -37.16228201722587 -19.40427505233903, -36.5853067896239 -19.45993515863156 M-36.5853067896239 -19.45993515863156 C-36.24598442729974 -19.470816566340385, -35.90666206497558 -19.481697974049208, -35.33593750000001 -19.5 M-36.5853067896239 -19.45993515863156 C-36.14824610198078 -19.473950844197255, -35.711185414337656 -19.487966529762947, -35.33593750000001 -19.5 M-35.33593750000001 -19.5 C-35.33593750000001 -19.5, -35.3359375 -19.5, -35.3359375 -19.5 M-35.33593750000001 -19.5 C-35.33593750000001 -19.5, -35.3359375 -19.5, -35.3359375 -19.5" stroke="#9370DB" stroke-width="1.3" fill="none" stroke-dasharray="0 0" style=""/></g><g class="label" style="" transform="translate(-42.4609375, -12)"><rect/><foreignObject width="84.921875" height="24"><div xmlns="http://www.w3.org/1999/xhtml" style="display: table-cell; white-space: nowrap; line-height: 1.5; max-width: 200px; text-align: center;"><span class="nodeLabel"><p>✅ Promote</p></span></div></foreignObject></g></g></g></g></g><defs><filter id="my-svg-drop-shadow" height="130%" width="130%"><feDropShadow dx="4" dy="4" stdDeviation="0" flood-opacity="0.06" flood-color="#000000"/></filter></defs><defs><filter id="my-svg-drop-shadow-small" height="150%" width="150%"><feDropShadow dx="2" dy="2" stdDeviation="0" flood-opacity="0.06" flood-color="#000000"/></filter></defs></svg>